<svg xmlns="http://www.w3.org/2000/svg" viewBox="0 0 70 70">
  <defs>
    <style>.cls-1{fill:#563d7c;}.cls-2{fill:#fff;}</style>
  </defs>
  <title>Bootstrap</title>
  <g id="Layer_2" data-name="Layer 2">
    <g id="Layer_1-2" data-name="Layer 1">
      <path fill="#563d7c" d="M70,58.33A11.7,11.7,0,0,1,58.33,70H11.67A11.7,11.7,0,0,1,0,58.33V11.67A11.7,11.7,0,0,1,11.67,0H58.33A11.7,11.7,0,0,1,70,11.67Z"/>
      <path fill="#fff" d="M19,15.21H38.87a14.15,14.15,0,0,1,8.8,2.52Q51,20.25,51,25.33a9.08,9.08,0,0,1-1.51,5.29A9.79,9.79,0,0,1,45.16,34v.11a9,9,0,0,1,5.72,3.57,11.86,11.86,0,0,1,1.94,7A11.68,11.68,0,0,1,52,49.15a9,9,0,0,1-2.69,3.6,13.44,13.44,0,0,1-4.69,2.4,22.77,22.77,0,0,1-6.8.9H19V15.21Zm7.15,17.1H37.84a6.38,6.38,0,0,0,4.29-1.46,5.26,5.26,0,0,0,1.71-4.21c0-2.06-.51-3.51-1.54-4.35A7,7,0,0,0,37.84,21H26.17V32.31Zm0,17.9H38.81a7.06,7.06,0,0,0,5-1.69,6.2,6.2,0,0,0,1.81-4.78,5.93,5.93,0,0,0-1.81-4.67,7.2,7.2,0,0,0-5-1.62H26.17Z"/>
    </g>
  </g>
</svg>
