<svg xmlns="http://www.w3.org/2000/svg" viewBox="0 0 200.36 70">
  <defs>
    <style>.cls-1{fill:#092e20;}</style>
  </defs>
  <title>Django_text</title>
  <g id="Layer_2" data-name="Layer 2">
    <g id="Layer_1-2" data-name="Layer 1">
      <path class="cls-1" d="M23.62,0h11V50.72a72,72,0,0,1-14.23,1.49C7,52.21,0,46.16,0,34.57,0,23.4,7.4,16.14,18.85,16.14a17.38,17.38,0,0,1,4.77.57Zm0,25.53a10.81,10.81,0,0,0-3.7-.57c-5.55,0-8.75,3.42-8.75,9.39s3.06,9,8.68,9a25.86,25.86,0,0,0,3.77-.28Z"/>
      <path class="cls-1" d="M52,16.92v25.4c0,8.75-.64,13-2.56,16.58s-4.13,5.69-9,8.11L30.31,62.17C35.15,59.9,37.5,57.9,39,54.84s2.06-6.76,2.06-16.29V16.92ZM41.05.06H52V11.3h-11Z"/>
      <path class="cls-1" d="M58.63,19.41a33,33,0,0,1,14.51-3.27c5.63,0,9.32,1.49,11,4.41.93,1.64,1.21,3.77,1.21,8.33V51.14a119.09,119.09,0,0,1-15.65,1.21c-9.18,0-13.31-3.2-13.31-10.31,0-7.69,5.48-11.24,18.93-12.38V27.24c0-2-1-2.71-3.77-2.71a28.64,28.64,0,0,0-12.88,3.35V19.41ZM75.78,36.84c-7.26.71-9.61,1.85-9.61,4.7,0,2.13,1.35,3.13,4.34,3.13a29.91,29.91,0,0,0,5.27-.5V36.84Z"/>
      <path class="cls-1" d="M90.65,18.63a65.58,65.58,0,0,1,17.22-2.49c5.62,0,9.67,1.28,12.09,3.77s3,4.91,3,10.39V51.78H112V30.72c0-4.19-1.42-5.76-5.33-5.76a16.54,16.54,0,0,0-5.06.78v26H90.65Z"/>
      <path class="cls-1" d="M127.21,57.76A25,25,0,0,0,139,60.68c7.19,0,10.24-2.92,10.24-9.89v-.21a15,15,0,0,1-7.11,1.49c-9.61,0-15.73-6.33-15.73-16.36,0-12.46,9-19.5,25.05-19.5a69.56,69.56,0,0,1,14.3,1.56L162,25.68c-2.92-.57-.23-.08-2.44-.29v1.14l.14,4.62.07,6c.08,1.49.08,3,.15,4.48v3c0,9.39-.79,13.8-3.13,17.43-3.42,5.34-9.32,8-17.72,8a31.4,31.4,0,0,1-11.81-2.13V57.76ZM149,25h-1.14a12,12,0,0,0-6.33,1.57c-2.63,1.49-4,4.2-4,8,0,5.48,2.7,8.61,7.54,8.61a13.88,13.88,0,0,0,4.13-.71V38.76c0-1.28-.08-2.7-.08-4.19l-.07-5.05L149,25.89V25Z"/>
      <path class="cls-1" d="M182.71,16c11,0,17.65,6.9,17.65,18.07,0,11.45-7,18.64-18.07,18.64s-17.72-6.9-17.72-18C164.57,23.18,171.54,16,182.71,16Zm-.21,27.89c4.2,0,6.69-3.49,6.69-9.54s-2.42-9.53-6.62-9.53-6.83,3.49-6.83,9.53S178.23,43.89,182.5,43.89Z"/>
    </g>
  </g>
</svg>
