<svg xmlns="http://www.w3.org/2000/svg" viewBox="0 0 179.23 70">
  <title>Flask_text</title>
  <g id="Layer_2" data-name="Layer 2">
    <g id="Layer_1-2" data-name="Layer 1">
      <g id="layer1">
        <path id="path2900" d="M23.45,62.33c-3-2.35-6.18-4.6-8.36-7.78A63.44,63.44,0,0,1,4.56,35.66C3.1,31.23,2.61,26.49.72,22.23c-2-3.09.34-6.47,3.73-7.46,1.51-.29,4.16-1.71,1-.69-2.87,2.1-3.15-1.91-.21-2.17A2.33,2.33,0,0,0,7.26,8.52c-2.15-1.4,5.23-2.95,1.52-5-3.87-4.17,5.41-5,3.12-.23-.55,3.64,6.48-.67,4.85,3.54,1.66,2,6.21.46,6.1,3.3,2.42.16,3.25,2.19,5.52,2.35,2.35,1.06,6.61,1.9,7.41,4.55-2.33,1.85-7.73-3.82-8,1.3.7,7.55.52,15.33,3.28,22.52,1.31,4.35,4.48,7.78,7.34,11.17s6.45,5.66,10.23,7.63a42.09,42.09,0,0,0,10.5,3.25c1.46-1.12,4-5.29,6.34-3.53.11,2-4.54,4.13-.22,3.91,2.53-.77,4.29,2,6.38-.5,1.93,2.28,8-1.46,6.63,3.2-1.85,1.2-4.55.48-6.41,2.12-3-1.53-5.49,1.37-8.87,1A65.91,65.91,0,0,1,51.6,70C45.34,69.51,39,69.3,33,67.12a37.41,37.41,0,0,1-9.56-4.79Zm5.28,2.29C32,66,35.2,67.52,38.78,68c5.69.8,11.57,2,17.27.9-2.58-1.16-5.25.46-7.82-.83-3.09.66-6.4-.17-9.54-.58-3.57-1.59-7.42-2.68-10.76-4.75-4.18-1.52,2.16,2,3.28,2.24,2.61,1.48-2.87-.76-3.64-1.37-2.19-1.23-2.46-1-.22.27.46.27.9.54,1.38.77Zm-6.23-4.4c3.17,1.17,0-2.23-1.46-2-.65-1.12-2.46-1.82-1.18-2.42-2.3.8-2.41-3-3.5-2.5-2.43-.77-.95-3.49-3.85-5.16-.26-1.77-2.88-3.3-3.72-6-.37-1.36-3-5.27-1.37-1.63C8.78,44,11.16,47,13.15,50c1.54,2.86,3.35,5.84,6.16,7.62,1,.91,1.86,2.3,3.19,2.58Zm14,5.9c1.3.82,7.58,1.79,3.65.33C39.46,66.59,32.82,64.57,36.47,66.12ZM22.12,54.46c1.52,1.17,6.14.15,2.33-.69-1.73-.93-5.64-1.56-3,.55l.65.14Zm7.37,3.91c3.73,1.06-3.13-2.35-.92-.39l.49.23.43.16ZM36,62.1c3.53,0-3.19-.48,0,0Zm-6.42-5.7c2.7.35-3.23-1.84-.6-.2l.6.2Zm9.4,5.78c2.53-1.51,1.69,3.54,4.29.43,2.55-1.87-2.21,2.31.94.33,2.28-1.52,5.65.72,7.77,1.46,1.53-.08,3,1.32,4.59.47,3-.81-5.9-1.21-3.56-2.65-2.77.8-4.81-1-6.17-2.73-3.1-.71-6.68-2.3-8.22-5-.63-1,.91.15-.55-1.54-1.87-1.66-2.8-3.54-4.05-5.56-1.5-.8-1.67-3.15-1.82-.08,0-1.94-1.81-3.24-2.26-2.7,0-1.87,1.95-.93.58-2.31-.29-1.94-1.26-3.95-1.55-6.14-.46-1-.07-3.31-1.55-.92-.54,2.52-.18-3.1.66-1.25,1.1-1.89-.4-1.66-.46-1.4.72-1.59.46-3.86-.18-3,.38-1.69.6-6.22-.58-5.42.72-1.77,1.36-8.08-1.74-5.67a13,13,0,0,0-4.46,1c3.22,1.78-.32.64-1.63.36-.17,1.65-1.47.93-3.1.95,2.6.32-1.26,2.65-2.75,1.75-1.93.92,1.67,3.22,0,3.94.2,1.07-3-.39-2.71,2.09-1.87-.79-.26,2.94.68,1.68,3.19.86,2.25,2.83,2.33,4.7C13,36,10.9,32.34,13,32.51c-1.66-2.71-1.84-1-3.22.28-.32.09,3.53,1.78,1.11,2.62,2.13.33,2.19,2.19,2.62,3.37,1.28,1.33,1-1.47,2.54.13-1-1.43-5.12-4-1.77-3.19,0-1.43-.61-2.59.42-2.56,1-1.84-1.07,4.54,1.22,2.2.63-.28.79-1.84,1.93.15,1.65,1.62.6,2.8-1.74,1.31.42,1.42,3.13,1.92,2.62,4.14.54,1.95,1.29,1.23,2,1.12.51,1.89.8.5.83-.4,2.36.5,1.81,1.9,2.54,2.87,1.63.73-2.32-5,.47-1.72,2.93,2.66,1.1,3.76-1.54,3.34,1.67-.14,2.21,2.25,4.3,2.17,1.9.9,3.19,4.38-.09,2.93-1.14-1-5.17-2.29-1.88-.34a79.28,79.28,0,0,1,8.38,4c2.09,1.5,3,3.21,3.79,3.55-1.76.84-5.3-.67-2.67-1.13-1.64-.3-3.49-1.13-1.92.91,1.34,1.12,4.74,1,5.35,1.13-.51,1.14-1.4,1.23,0,1.32-1.59.85.51,1,.66,1.46ZM35.68,53c-1-1-1.22-2.91-.17-1.26.53.22,1.72,3.1.17,1.26Zm-6.2-10.21c-1.15-2.59.81-1.41.25.42l-.25-.42ZM18.87,35.71c-.52-.85-1.37-3.33-1.1-4.09.25,1.23,2.63,5.32,1.17,1.69-1.62-3,1.93,1,2.29,1.74.17.76-1-.2-.2,1.57C19.59,34.6,20.18,37.73,18.87,35.71Zm-5.36-4.5c-1.22-1.21-2.1-2.33.06-.75.83,0-1.85-2.55.2-.82C15.93,30,14.83,33.18,13.51,31.21Zm.73-1.86c-3.55-3.16,4.46,1.65.58.59l-.58-.59Zm10.17,5.91c-1.53-.92-.4-6.48.12-2.68,1.49-.48-.08,2,1,1.94C25.39,36.07,24.89,36.62,24.41,35.26Zm-9.47-6.95c-2.28-3.14,6.63,3.19,1.46.8C15.86,29,15.21,28.92,14.94,28.31Zm7.24,3.84c-.21-2.65.49.44,0,0Zm-6.89-5c1.35-.29,5.62,2.38,1.7.76C16.56,27.39,15.63,27.61,15.29,27.11Zm11.64,5.8c.14-2.71.81-1.61,0,.39v-.39ZM16.3,26.17c.55-.81-1.47-3.66.29-1,.76.6,2.2,1,.93,1.26C19.51,28.17,17,26.89,16.3,26.17Zm7.81.22c-.18-1.05.58,1.31,0,0Zm1-1.67c-.7-1.24.89-5.47,1.07-2.85-.74,2-.21,3.19.3.45,1-2.16-.2,4.25-1.37,2.4ZM28.05,55c2,.52,2-.31.19-.56-1-.91-4.08-1.88-1.31-.11.18.46.76.45,1.12.67ZM20.89,50.2c1.11.83,4.19,2.35,1.58.32.88-1-1.68-1.56-.83-2.25-2.16-1.32-1.7-1.2-.19-1.16-2.59-1.16.37-1.07.23-1.67-1-.19-5-1.76-2.63.13-2.37-1.21-.56.45-1.28.28-2.43-.66,2.16,1.85-.39,1.22,1.4,1.11,3.75,2.83.59,1.17-.41.6,2.26,1.51,2.92,2ZM46.1,65c1.07-1,0,1.64,1.77-.25,0-1.36-.06-2.16-2-.51-.53.29-.77,1.54.21.76ZM28.67,53.8c1.19,1.05,5.44.77,1.44.13C29.52,53.05,26.35,53.26,28.67,53.8ZM49.14,66c2-2.14-2,.13,0,0ZM9.17,40.7c-1.72-2.46-1.07-3.56-2.73-5.56-.31-1.53-2.84-5-1.31-1.33C6.54,36,7,39.3,9.17,40.7Zm41.58,25c1.8-1.16-.42-1-.33.11l.33-.11Zm2.89.79c2.3-1.67-1.4-.32-.49.31l.49-.31ZM14.94,41.8c1.69.38,6.75,4.17,3.77.27-1.53-.46-.62-4.2-2.18-3.54,1,1.75.86,2.5-1.34,1.4-2.76-1.35-1.55.66-1,1.22-.74.17,1,.64.76.65ZM7.23,35.72c.31-1.25-2.78-6.89-1.45-2.82C6.26,33.75,6.21,35.36,7.23,35.72ZM42.1,56.65c-.36-.91-1.4,0,0,0Zm18,8.27c1.67-.34,5.49.85,6.1-.45-2,0-7-1.43-7.27.34l.45.07.72,0ZM8,28.53c1.68-.66-3.08-1.37-.35-.13Zm-5.27-5.9c-.31-1.75-.27-4.81,2.65-3.78-3.89.78,2.7,4.84,1.86,1.63,1.64.08,3.21-1,2.35.62,3.22-.35,5.46-3.15,8.58-2.76a33.7,33.7,0,0,0,7.69-1.54c2.15-.15,4.22-2.47,3-3.84a33.38,33.38,0,0,0-9.24.76c-3.59.75-6.85,2.17-10.48,2.78s.71,1.3-.3,1.49c-1.84.64,2.2,1.07-.24,1.74-1.5-.28-3.07-.8-2.43-2.39-3.38.44-6.36,1.85-3.68,5.29Zm8.15-4.15c.79-2.92,4.25,2.41,1.3.39A1.81,1.81,0,0,0,10.89,18.48Zm1.61-1.39c.1-1.35,3.33.71.53.48l-.53-.48ZM15,16c1.21-1.46,6.85-.93,2.72-.15C16.61,15,15.76,16.3,15,16Zm9.45-1.15c.76-2,3-.8.35-.4C24.86,14.61,24.72,15.43,24.45,14.8ZM7.59,25.41c2.28-1.4-2.42-1.21,0,0Zm66,39.53c1.82,0,5.52-.56,1.56-.56-.62.1-3.63.08-1.56.56ZM10.76,25.06c1.48-.1,2.31-1.63-.28-1.54-4-.42,3.54,1.38-.52.86C9.41,24.74,10.73,25.16,10.76,25.06ZM8.7,13.41c2.63-.9,6.23-1.9,7.47.44-1.26-1.52-.51-3,.68-.8,1.69,2.26,2.54-1,1.44-1.78,1.25,1.56,2.68,2.29.84.1,2-2.4-4,.32-5.36.29C13.11,12,7,13.22,8.7,13.41Zm1.54-3c1.5-1.13,5.19.68,2.82-1.12C12.83,9.12,7.88,10.69,10.24,10.45Zm5.47.23c1.76,0-.76-2.36,1.34-1.27-.35-1.12-2.44-1.33-3.46-1.78C13,8.65,14.76,10.69,15.71,10.68ZM13.43,6.25c2.84-.38-.72-1.22-.57,0l.57,0ZM9.26,3C7.26.38,13,3.42,11,.69,9.28-.67,7.64,2.22,9.26,3ZM34.84,16.76c.92-1.62-3.77-2.19-.61-.58C34.52,16.28,34.45,16.87,34.84,16.76Z"/>
        <g id="text3850">
          <path id="path2830" d="M78,5.58a33.06,33.06,0,0,0-.61,6.49q0,.9-.81.9a1.12,1.12,0,0,1-1.12-.78,10.27,10.27,0,0,0-1.65-2.95,4,4,0,0,0-2.45-1.18,74.78,74.78,0,0,0-8.2-.26,4,4,0,0,0-2,.32,1,1,0,0,0-.29.86V22.06q0,.66.84.63c1.71,0,4.19-.13,7.44-.34a1.72,1.72,0,0,0,1.29-.62,8.7,8.7,0,0,0,.65-2.61,1,1,0,0,1,1.35-.9c.66.14.94.43.84.9a42.65,42.65,0,0,0-.52,10.21c0,.5-.3.77-1,.81s-.88-.23-1-.86c-.5-2.41-1.43-3.69-2.79-3.86a63.53,63.53,0,0,0-6.62-.24c-.35,0-.52.12-.52.37v13a2,2,0,0,0,1.07,2,12.92,12.92,0,0,0,3.6.78c1,.1,1.36.51,1.25,1.24s-1,.89-2.54.75A54.82,54.82,0,0,0,53,43.33c-.83.12-1.24-.22-1.24-1,0-.5.41-.79,1.24-.86,1.89-.22,2.83-1.87,2.83-5V11.78a5.33,5.33,0,0,0-.68-2.93A5.85,5.85,0,0,0,52.64,7q-1.16-.51-.87-1.41c.1-.37.25-.57.46-.61a5.09,5.09,0,0,1,1.53.12,74.75,74.75,0,0,0,8.57.29q8,0,13.77-.35C77.39,5,78,5.06,78,5.35a1.79,1.79,0,0,1,0,.23Z"/>
          <path id="path2832" d="M96.77,42.26c0,.77-.44,1.11-1.3,1a57.09,57.09,0,0,0-9.87.12,2.91,2.91,0,0,1-1.46-.06c-.18-.11-.28-.43-.28-.95s.53-.85,1.58-1.17S87,39.94,87,38.37V12.25a6.76,6.76,0,0,0-.68-3.44A4.35,4.35,0,0,0,84,7.11c-.6-.21-.89-.51-.89-.9,0-.57.43-1,1.3-1.29a18.64,18.64,0,0,0,4.07-2,6.72,6.72,0,0,1,2.19-1c.71,0,1.07.49,1.07,1.48q0-.12-.12,2.88c-.06,1.91-.08,3.78-.06,5.63l.12,25.77a3.35,3.35,0,0,0,.86,2.56,5.39,5.39,0,0,0,3,1.05C96.33,41.38,96.77,41.71,96.77,42.26Z"/>
          <path id="path2834" d="M123.09,40.33c0,.4-.74,1-2.21,1.83a7.92,7.92,0,0,1-3.53,1.23,2.52,2.52,0,0,1-2-1.1c-.57-.73-1-1.09-1.21-1.09a17.46,17.46,0,0,0-2.74,1.18,11.5,11.5,0,0,1-5,1.18,5.83,5.83,0,0,1-4-1.38A5.29,5.29,0,0,1,100.72,38q0-5,11.43-7.16c1.31-.25,2-.78,2-1.58l.06-1.85c.11-3.16-1.28-4.74-4.19-4.74-.82,0-1.61.75-2.35,2.23a3.83,3.83,0,0,1-3.19,2.39c-1.58.16-2.36-.51-2.36-2q0-1.38,3.52-3.23a15.3,15.3,0,0,1,7.1-1.94c3.9,0,5.84,1.86,5.8,5.58l-.12,11.89c0,1.25.51,1.87,1.59,1.87a10.21,10.21,0,0,0,1.21-.14c.6-.1,1-.15,1-.15.56,0,.84.38.84,1.13Zm-8.89-6.58c0-.48-.09-.8-.33-1a1.56,1.56,0,0,0-1.14-.09q-7,1.24-7,4.53t3.61,3.32a8.68,8.68,0,0,0,3-.55c1.2-.42,1.79-.93,1.79-1.53Z"/>
          <path id="path2836" d="M144.62,36.89a5.81,5.81,0,0,1-2.35,4.87,10.33,10.33,0,0,1-6.42,1.8,25.71,25.71,0,0,1-5.43-.58,6.45,6.45,0,0,1-2.71-.95,15.75,15.75,0,0,1-.23-4q0-1.53.69-1.59a1.19,1.19,0,0,1,1.18.75,7.45,7.45,0,0,0,7,3.78q4.07,0,4.07-2.83a2.67,2.67,0,0,0-.93-2.07,14.7,14.7,0,0,0-3.92-2.23,20,20,0,0,1-5.63-3.29,5.39,5.39,0,0,1-1.53-4,5.64,5.64,0,0,1,2.4-4.85A9.67,9.67,0,0,1,136.74,20a22.49,22.49,0,0,1,4.27.37c1.39.25,2.11.56,2.17.93.15,1.08.47,2.63.95,4.67.06.25-.21.46-.81.61s-1.06,0-1.27-.32q-2.28-3.72-5.77-3.72c-2.64,0-3.95.85-3.95,2.54a2.71,2.71,0,0,0,1.06,2.25,27.4,27.4,0,0,0,4.48,2.25,18.15,18.15,0,0,1,5,2.86A5.82,5.82,0,0,1,144.62,36.89Z"/>
          <path id="path2838" d="M178.1,42.09c0,.67-.45,1-1.36,1.07-1.34,0-3.1.11-5.28.29a2.44,2.44,0,0,1-2.31-.41,59.92,59.92,0,0,1-7.73-10.27.76.76,0,0,0-.67-.46,3.84,3.84,0,0,0-1.7.86,2.34,2.34,0,0,0-1.35,2.14c0,.65,0,1.59.05,2.83a2.85,2.85,0,0,0,.93,2.42,7.47,7.47,0,0,0,2.8.64c.9.11,1.35.45,1.35,1s-.07.71-.21.82a2.15,2.15,0,0,1-1.14.07,66.14,66.14,0,0,0-9.76.29c-1.15.1-1.78,0-1.88-.43a2.82,2.82,0,0,1-.05-.58c0-.6.58-1.05,1.76-1.36s1.58-1.51,1.58-3.72V12.07a8.13,8.13,0,0,0-.46-3.29A4.36,4.36,0,0,0,150,6.94c-.64-.22-1-.51-1-.9,0-.56.45-1,1.35-1.3a17.85,17.85,0,0,0,4.13-2,6.31,6.31,0,0,1,2-1c.79,0,1.19.5,1.19,1.5,0-.13,0,.82,0,2.86,0,1.4,0,3.29,0,5.66l.06,18.06c0,.5.13.76.4.76a2.67,2.67,0,0,0,1.33-.76c1.59-1.25,3.56-2.88,5.88-4.9a2,2,0,0,0,.7-1.16c0-.52-.78-.88-2.34-1.09a1,1,0,0,1-.95-1.13c.06-.67.39-1,1-.86a51,51,0,0,0,6.06.31l5.51,0c.6,0,.9.38.9,1.07s-.48,1-1.42,1.07a10.66,10.66,0,0,0-4.18,1,20.8,20.8,0,0,0-5.86,4.36.5.5,0,0,0-.23.43,5.63,5.63,0,0,0,1,1.93,40.72,40.72,0,0,0,6.81,8.29,6.13,6.13,0,0,0,3.84,1.76,4.34,4.34,0,0,1,1.64.18c.22.13.32.46.32,1Z"/>
        </g>
        <g id="text2870">
          <path id="path2877" d="M100.72,52.15q0,.1-.39.21c-.17,0-.31.2-.43.46-.67,1.49-1.27,2.7-1.8,3.62t-.09,0s-.07,0-.08,0-.32-.61-.69-1.41a9.34,9.34,0,0,0-.55-1.11,5.31,5.31,0,0,0-.6,1.07c-.41.8-.65,1.25-.73,1.36s0,0-.07,0a.11.11,0,0,1-.1-.05c-.27-.43-.9-1.59-1.89-3.5a.81.81,0,0,0-.37-.43c-.24-.1-.36-.18-.36-.23s.08-.21.24-.19a6.54,6.54,0,0,0,1.9,0q.18,0,.18.12c0,.15-.08.24-.25.28s-.33.14-.33.25a.86.86,0,0,0,.08.32,14.16,14.16,0,0,0,.6,1.32,3,3,0,0,0,.47.8,4.74,4.74,0,0,0,.48-.83,5.41,5.41,0,0,0,.43-.93.93.93,0,0,0-.14-.47c-.12-.25-.25-.4-.41-.44s-.37-.17-.37-.26.09-.21.26-.18a6,6,0,0,0,1.83,0q.18,0,.18.12c0,.14-.09.23-.27.26s-.33.15-.33.33a.72.72,0,0,0,.07.3,9,9,0,0,0,1,2.12,3.4,3.4,0,0,0,.45-.83,11,11,0,0,0,.6-1.42.35.35,0,0,0,0-.06c0-.16-.13-.28-.38-.37s-.29-.14-.29-.22.06-.18.18-.15a5.86,5.86,0,0,0,.91.09,6.22,6.22,0,0,0,.82,0c.15,0,.23,0,.23.13Z"/>
          <path id="path2879" d="M105.69,55.33c0,.16-.22.36-.65.6a3.11,3.11,0,0,1-1.52.4,2,2,0,0,1-1.43-.55,2.09,2.09,0,0,1-.61-1.58,2.37,2.37,0,0,1,.69-1.78,2.16,2.16,0,0,1,1.58-.63,1.78,1.78,0,0,1,1,.35,1.54,1.54,0,0,1,.57.72c0,.1.08.15.15.16a.17.17,0,0,1,.15.2c0,.15-.19.28-.55.39l-2.59.77c.17.89.62,1.33,1.37,1.33a3,3,0,0,0,1.47-.47.44.44,0,0,1,.24-.07C105.66,55.17,105.69,55.22,105.69,55.33Zm-1.33-2.25a.72.72,0,0,0-.25-.54.84.84,0,0,0-.61-.23c-.69,0-1,.49-1,1.48v.14l1.53-.46C104.24,53.4,104.36,53.27,104.36,53.08Z"/>
          <path id="path2881" d="M111.36,53.75a2.47,2.47,0,0,1-.77,1.87,2.43,2.43,0,0,1-1.76.72,4.06,4.06,0,0,1-1.21-.19c-.4-.12-.61-.23-.61-.34v-.9c0-.63,0-1.09,0-1.38s0-1.06,0-1.89,0-1.37,0-1.64a1,1,0,0,0-.12-.56.9.9,0,0,0-.49-.21.18.18,0,0,1-.15-.18c0-.08.07-.15.22-.2a5.38,5.38,0,0,0,.78-.38,1.72,1.72,0,0,1,.46-.2c.12,0,.17.09.17.28,0,0,0,.21,0,.59s0,.7,0,1.07v1.94c0,.18.07.24.19.16a2.78,2.78,0,0,1,1.41-.39,1.9,1.9,0,0,1,1.37.51,1.76,1.76,0,0,1,.52,1.32Zm-.89.5A1.89,1.89,0,0,0,110,53a1.25,1.25,0,0,0-1-.46,1.63,1.63,0,0,0-.79.2c-.26.14-.39.29-.39.44v1.51q0,1.08,1.2,1.08a1.32,1.32,0,0,0,1-.4,1.53,1.53,0,0,0,.39-1.11Z"/>
          <path id="path2883" d="M120.44,55.72a.2.2,0,0,1,0,.08c0,.08-.19.21-.58.38a3.28,3.28,0,0,1-.78.31c-.06,0-.14-.11-.23-.34s-.15-.34-.18-.34l-.64.3a2.53,2.53,0,0,1-1,.29,1.77,1.77,0,0,1-1.29-.53,2.39,2.39,0,0,1-.65-1.78,2.39,2.39,0,0,1,2.17-2.27,7.26,7.26,0,0,1,1.2.13c.15,0,.22,0,.22-.13V49.9a.61.61,0,0,0-.15-.46,1.61,1.61,0,0,0-.48-.21.23.23,0,0,1-.18-.22q0-.13.24-.21a4,4,0,0,0,.79-.33,1.52,1.52,0,0,1,.47-.2c.14,0,.21.09.21.28,0,0,0,.18,0,.56s0,.74,0,1.1v5.1c0,.21.09.32.28.32l.29,0a.2.2,0,0,1,.26.12Zm-1.73-.55v-2c0-.16-.15-.33-.44-.51a1.88,1.88,0,0,0-1-.28c-.78,0-1.17.48-1.17,1.45a1.94,1.94,0,0,0,.47,1.32,1.38,1.38,0,0,0,1.09.55,1.53,1.53,0,0,0,.67-.19Q118.71,55.3,118.71,55.17Z"/>
          <path id="path2885" d="M125.31,55.33c0,.16-.22.36-.65.6a3.11,3.11,0,0,1-1.52.4,2,2,0,0,1-1.43-.55,2.09,2.09,0,0,1-.61-1.58,2.37,2.37,0,0,1,.69-1.78,2.16,2.16,0,0,1,1.58-.63,1.78,1.78,0,0,1,1,.35,1.54,1.54,0,0,1,.57.72c0,.1.08.15.15.16a.17.17,0,0,1,.15.2c0,.15-.19.28-.55.39l-2.59.77c.17.89.62,1.33,1.37,1.33a3,3,0,0,0,1.47-.47.44.44,0,0,1,.24-.07C125.28,55.17,125.31,55.22,125.31,55.33ZM124,53.08a.72.72,0,0,0-.25-.54.84.84,0,0,0-.61-.23c-.69,0-1,.49-1,1.48v.14l1.53-.46C123.86,53.4,124,53.27,124,53.08Z"/>
          <path id="path2887" d="M131.47,52.14c0,.07-.12.14-.36.22s-.28.2-.39.46c-.18.44-.5,1.09-1,1.94s-.68,1.25-.89,1.58a.07.07,0,0,1-.07,0,.13.13,0,0,1-.09-.05,25.45,25.45,0,0,1-2-3.5c-.12-.26-.23-.4-.35-.43s-.33-.16-.33-.23.08-.21.22-.19a7.64,7.64,0,0,0,1,0,6.66,6.66,0,0,0,.91-.07c.11,0,.17,0,.17.12s-.08.22-.23.26-.44.18-.44.3a.69.69,0,0,0,.06.24,11.19,11.19,0,0,0,.68,1.36,3.89,3.89,0,0,0,.56.89,4.56,4.56,0,0,0,.48-.85,13.15,13.15,0,0,0,.64-1.46.27.27,0,0,0,0-.12.41.41,0,0,0-.27-.36c-.17-.07-.26-.14-.26-.21s.06-.18.17-.16a6.84,6.84,0,0,0,.79.07,6.41,6.41,0,0,0,.74,0q.21,0,.21.12Z"/>
          <path id="path2889" d="M136.44,55.33c0,.16-.21.36-.65.6a3.11,3.11,0,0,1-1.52.4,2,2,0,0,1-1.42-.55,2.1,2.1,0,0,1-.62-1.58,2.37,2.37,0,0,1,.69-1.78,2.18,2.18,0,0,1,1.58-.63,1.76,1.76,0,0,1,1,.35,1.48,1.48,0,0,1,.57.72c0,.1.09.15.16.16s.14.08.14.2-.18.28-.55.39l-2.59.77c.17.89.63,1.33,1.37,1.33a3,3,0,0,0,1.47-.47.49.49,0,0,1,.24-.07C136.41,55.17,136.44,55.22,136.44,55.33Zm-1.33-2.25a.72.72,0,0,0-.25-.54.83.83,0,0,0-.61-.23c-.69,0-1,.49-1,1.48v.14l1.52-.46C135,53.4,135.11,53.27,135.11,53.08Z"/>
          <path id="path2891" d="M139.91,56.11c0,.15-.08.22-.25.2a11.35,11.35,0,0,0-1.92,0,.54.54,0,0,1-.28,0s-.06-.08-.06-.19.11-.16.31-.22.31-.25.31-.56V50.28a1.26,1.26,0,0,0-.14-.67.79.79,0,0,0-.46-.33c-.11,0-.17-.1-.17-.18s.08-.19.25-.25a3.54,3.54,0,0,0,.79-.38,1.22,1.22,0,0,1,.43-.2c.14,0,.21.09.21.28,0,0,0,.17,0,.56s0,.74,0,1.1l0,5a.67.67,0,0,0,.17.5,1.06,1.06,0,0,0,.58.2c.17,0,.25.08.25.19Z"/>
          <path id="path2893" d="M145.35,54a2.21,2.21,0,0,1-.72,1.66,2.54,2.54,0,0,1-1.8.67,2.37,2.37,0,0,1-1.69-.59,2.07,2.07,0,0,1-.6-1.55,2.16,2.16,0,0,1,.75-1.67,2.55,2.55,0,0,1,1.76-.66,2.38,2.38,0,0,1,1.71.59A2.09,2.09,0,0,1,145.35,54Zm-1,.35a2.32,2.32,0,0,0-.42-1.44,1.3,1.3,0,0,0-1.06-.53,1.25,1.25,0,0,0-1,.42,1.48,1.48,0,0,0-.38,1,2.33,2.33,0,0,0,.44,1.5,1.3,1.3,0,0,0,1.06.5,1.23,1.23,0,0,0,1-.41A1.57,1.57,0,0,0,144.36,54.36Z"/>
          <path id="path2895" d="M151.22,53.86a2.46,2.46,0,0,1-.71,1.78,2.22,2.22,0,0,1-1.64.74,2.9,2.9,0,0,1-1.09-.21s-.06.08-.06.28v1.69c0,.27.22.45.67.53a1.46,1.46,0,0,1,.39.1.17.17,0,0,1,.08.16c0,.13-.09.18-.25.17a9.79,9.79,0,0,0-2.07.06c-.13,0-.2,0-.23,0s-.05-.07-.05-.15.11-.14.32-.23a.53.53,0,0,0,.28-.54v-5c0-.4-.12-.65-.34-.75s-.39-.21-.39-.29.08-.14.23-.18a2.43,2.43,0,0,0,.61-.26,1.33,1.33,0,0,1,.32-.15c.12,0,.21.1.28.3s.17.45.21.45l.48-.26a2.08,2.08,0,0,1,1-.29,2,2,0,0,1,1.32.46,1.9,1.9,0,0,1,.63,1.54Zm-1,.45a2.11,2.11,0,0,0-.45-1.43,1.14,1.14,0,0,0-.87-.42,1.19,1.19,0,0,0-.74.27,1.14,1.14,0,0,0-.47,1v1.59c0,.1.14.2.43.32a2.7,2.7,0,0,0,1,.18c.73,0,1.1-.49,1.1-1.48Z"/>
          <path id="path2897" d="M161.36,56.12c0,.13-.06.18-.18.18a12.61,12.61,0,0,0-2.13,0c-.15,0-.22-.06-.22-.2s.1-.17.3-.18.37-.22.37-.61V53.82q0-1.26-1-1.26a2.26,2.26,0,0,0-1,.2c-.28.11-.42.23-.42.34l0,2.23a.91.91,0,0,0,.08.46.46.46,0,0,0,.28.11c.33.06.49.13.49.21a.28.28,0,0,1,0,.15s-.09.05-.2.05c-.43,0-1.05,0-1.86,0-.12,0-.19,0-.23,0s-.05-.07-.05-.15.11-.16.32-.18.35-.24.35-.64V53.81a1.45,1.45,0,0,0-.28-1,.77.77,0,0,0-.63-.3,2.12,2.12,0,0,0-1,.23q-.45.22-.45.48v2.05a.56.56,0,0,0,.18.48,1.21,1.21,0,0,0,.59.15c.15,0,.23.06.23.16s-.06.16-.18.16a19.05,19.05,0,0,0-2,.08.57.57,0,0,1-.27,0,.14.14,0,0,1,0-.13c0-.1.14-.18.41-.24s.26-.27.26-.66V53.59c0-.44-.12-.69-.36-.76l-.36-.12a.15.15,0,0,1-.06-.13c0-.07.19-.21.58-.43a2.63,2.63,0,0,1,.76-.35c.08,0,.14.11.2.34s.09.34.12.34a1.33,1.33,0,0,0,.35-.17,3.47,3.47,0,0,1,.62-.33,2.62,2.62,0,0,1,1-.18,1.41,1.41,0,0,1,.69.17,1.29,1.29,0,0,1,.36.31l.14.17.29-.17a3.62,3.62,0,0,1,.67-.31,2.76,2.76,0,0,1,.92-.17c1,0,1.54.56,1.54,1.69v1.82a.58.58,0,0,0,.15.45,1.2,1.2,0,0,0,.53.19c.2,0,.3.1.3.17Z"/>
          <path id="path2899" d="M166.1,55.33c0,.16-.22.36-.65.6a3.14,3.14,0,0,1-1.52.4,2,2,0,0,1-1.43-.55,2.1,2.1,0,0,1-.62-1.58,2.37,2.37,0,0,1,.69-1.78,2.2,2.2,0,0,1,1.59-.63,1.78,1.78,0,0,1,1,.35,1.61,1.61,0,0,1,.57.72c0,.1.08.15.15.16a.17.17,0,0,1,.15.2c0,.15-.19.28-.55.39l-2.59.77c.17.89.62,1.33,1.37,1.33a3,3,0,0,0,1.47-.47.44.44,0,0,1,.24-.07C166.07,55.17,166.1,55.22,166.1,55.33Zm-1.33-2.25a.72.72,0,0,0-.25-.54.85.85,0,0,0-.62-.23c-.68,0-1,.49-1,1.48v.14l1.53-.46C164.65,53.4,164.77,53.27,164.77,53.08Z"/>
          <path id="path2901" d="M172.83,56.17c0,.12-.08.17-.25.16a16.56,16.56,0,0,0-1.83,0c-.21,0-.33,0-.35-.08s0,0,0-.1.11-.14.33-.2.3-.25.3-.58V53.86c0-.86-.38-1.28-1.12-1.28a1.89,1.89,0,0,0-.93.23c-.27.16-.4.31-.4.48v2.05c0,.35.23.55.69.59.17,0,.26.07.26.17s0,.15-.07.17h-.19a11.32,11.32,0,0,0-1.82.09.87.87,0,0,1-.25,0c-.08,0-.11-.07-.11-.17s.1-.17.32-.23.29-.31.29-.75v-1.7c0-.29,0-.47-.11-.55a1.8,1.8,0,0,0-.52-.24.13.13,0,0,1-.11-.15c0-.08.07-.14.23-.2a3.37,3.37,0,0,0,.69-.37,1.06,1.06,0,0,1,.4-.22c.1,0,.17.12.2.35s.08.34.14.34a3.25,3.25,0,0,1,.58-.33,2.52,2.52,0,0,1,1.21-.32q1.46,0,1.47,1.65V55.3a.62.62,0,0,0,.18.5,1.28,1.28,0,0,0,.52.19C172.75,56,172.83,56.08,172.83,56.17Z"/>
          <path id="path2903" d="M176.44,55.75c0,.18-.17.33-.5.46a2.46,2.46,0,0,1-.88.17c-.82,0-1.22-.44-1.22-1.3v-2a1.11,1.11,0,0,0-.06-.48,1,1,0,0,0-.41-.17c-.06,0-.09-.07-.09-.17s0-.18.06-.2A2.57,2.57,0,0,0,174.4,51c0-.08.12-.1.24-.07a.15.15,0,0,1,.13.14l0,.71a.16.16,0,0,0,0,.11.26.26,0,0,0,.18,0h1.25c.07,0,.07.09,0,.26s-.21.32-.38.32H175a.35.35,0,0,0-.27.08.61.61,0,0,0,0,.27v1.84a2,2,0,0,0,.13.88c.11.15.36.23.76.23a2.23,2.23,0,0,0,.47-.06l.3-.07s.07,0,.07.09Z"/>
          <path id="path2905" d="M179,56a2.38,2.38,0,0,1-1.22,2.19.35.35,0,0,1-.17.07c-.05,0-.1-.06-.14-.18a.22.22,0,0,1,0-.1c0-.06.11-.17.32-.31a1.08,1.08,0,0,0,.55-.87.56.56,0,0,0-.32-.45.8.8,0,0,1-.44-.69.61.61,0,0,1,.18-.45.64.64,0,0,1,.49-.19.69.69,0,0,1,.58.27A1.13,1.13,0,0,1,179,56Z"/>
          <path id="path2907" d="M98.16,64.36A2.18,2.18,0,0,1,97.44,66a2.53,2.53,0,0,1-1.8.68,2.33,2.33,0,0,1-1.69-.6,2,2,0,0,1-.6-1.54,2.14,2.14,0,0,1,.76-1.67,2.53,2.53,0,0,1,1.75-.66,2.38,2.38,0,0,1,1.71.59,2,2,0,0,1,.59,1.55Zm-1,.34a2.3,2.3,0,0,0-.43-1.43,1.28,1.28,0,0,0-1.06-.53,1.24,1.24,0,0,0-1,.41,1.47,1.47,0,0,0-.37,1,2.28,2.28,0,0,0,.44,1.51,1.28,1.28,0,0,0,1,.49,1.25,1.25,0,0,0,1-.41A1.55,1.55,0,0,0,97.18,64.7Z"/>
          <path id="path2909" d="M105,66.52c0,.11-.08.17-.25.16a17.1,17.1,0,0,0-1.83,0c-.21,0-.33,0-.35-.08s0,0,0-.09.11-.14.33-.2.3-.25.3-.58V64.21c0-.86-.38-1.29-1.12-1.29a1.9,1.9,0,0,0-.93.24c-.27.15-.4.31-.4.47v2.06c0,.35.23.55.69.59.17,0,.26.07.26.17s0,.14-.07.16h-.19a11.32,11.32,0,0,0-1.82.09l-.25,0c-.08,0-.11-.08-.11-.18s.1-.16.32-.23.29-.31.29-.74V63.87a.86.86,0,0,0-.11-.55,1.9,1.9,0,0,0-.52-.23.15.15,0,0,1-.11-.16c0-.07.07-.14.23-.19a3.47,3.47,0,0,0,.69-.38,1.13,1.13,0,0,1,.4-.21c.1,0,.17.11.2.34s.08.35.14.35a3.25,3.25,0,0,1,.58-.33,2.54,2.54,0,0,1,1.21-.33c1,0,1.46.55,1.47,1.66v1.8a.62.62,0,0,0,.18.5,1.15,1.15,0,0,0,.52.19c.17,0,.25.1.25.19Z"/>
          <path id="path2911" d="M109.69,65.68q0,.24-.66.6a3.23,3.23,0,0,1-1.52.4,2,2,0,0,1-1.42-.56,2.08,2.08,0,0,1-.62-1.57,2.4,2.4,0,0,1,.69-1.79,2.18,2.18,0,0,1,1.58-.63,1.71,1.71,0,0,1,1,.36,1.48,1.48,0,0,1,.57.72c0,.09.09.14.16.15a.18.18,0,0,1,.14.2c0,.15-.18.28-.55.39l-2.59.77c.17.89.63,1.34,1.37,1.34a3.09,3.09,0,0,0,1.47-.47.52.52,0,0,1,.25-.08c.06,0,.09.06.09.17Zm-1.33-2.25a.76.76,0,0,0-.25-.55.91.91,0,0,0-.62-.23c-.69,0-1,.5-1,1.49v.13l1.53-.46C108.23,63.74,108.36,63.61,108.36,63.43Z"/>
          <path id="path2913" d="M118.67,66.07a.12.12,0,0,1,0,.07q0,.12-.57.39a3.86,3.86,0,0,1-.78.31c-.07,0-.14-.12-.23-.34s-.15-.34-.18-.34l-.64.29a2.58,2.58,0,0,1-1,.3,1.75,1.75,0,0,1-1.28-.54,2.33,2.33,0,0,1-.66-1.77,2.15,2.15,0,0,1,.78-1.66,2.07,2.07,0,0,1,1.39-.61,6.5,6.5,0,0,1,1.21.13c.15,0,.22,0,.22-.13V60.25a.56.56,0,0,0-.16-.46,1.4,1.4,0,0,0-.47-.21c-.12,0-.18-.12-.18-.22s.08-.17.24-.21a5.19,5.19,0,0,0,.79-.34,1.72,1.72,0,0,1,.47-.2c.14,0,.21.1.21.29,0,0,0,.18,0,.56s0,.74,0,1.09v5.1c0,.22.1.32.29.32l.29,0a.21.21,0,0,1,.26.13Zm-1.73-.56v-2c0-.16-.15-.33-.44-.51a2,2,0,0,0-1-.28c-.78,0-1.17.49-1.17,1.45a2,2,0,0,0,.46,1.33,1.43,1.43,0,0,0,1.1.55,1.56,1.56,0,0,0,.67-.2Q116.94,65.66,116.94,65.51Z"/>
          <path id="path2915" d="M122.91,62.64c0,.45-.13.68-.39.68l-.41-.08a3,3,0,0,0-.52-.08c-.41,0-.62.28-.62.85v1.65a.44.44,0,0,0,.2.42,3,3,0,0,0,.59.2c.17,0,.25.1.25.19s0,.16,0,.18a.32.32,0,0,1-.21,0,8,8,0,0,0-2,0c-.15,0-.24,0-.28,0s0-.09,0-.19.1-.19.31-.25.31-.23.31-.53V63.87a.85.85,0,0,0-.09-.47,1.49,1.49,0,0,0-.51-.33l0,0a.18.18,0,0,1-.12-.16c0-.07.08-.14.23-.19a2.55,2.55,0,0,0,.71-.38.93.93,0,0,1,.34-.21c.13,0,.21.12.24.35s.07.44.12.44l.63-.42a1.58,1.58,0,0,1,.89-.27c.27,0,.41.14.41.43Z"/>
          <path id="path2917" d="M128.47,64.36a2.18,2.18,0,0,1-.72,1.65,2.57,2.57,0,0,1-1.8.68,2.37,2.37,0,0,1-1.7-.6,2,2,0,0,1-.6-1.54,2.17,2.17,0,0,1,.76-1.67,2.55,2.55,0,0,1,1.76-.66,2.34,2.34,0,0,1,1.7.59,2,2,0,0,1,.6,1.55Zm-1,.34a2.29,2.29,0,0,0-.42-1.43,1.28,1.28,0,0,0-1.06-.53,1.23,1.23,0,0,0-1,.41,1.48,1.48,0,0,0-.38,1,2.34,2.34,0,0,0,.44,1.51,1.3,1.3,0,0,0,1.06.49,1.23,1.23,0,0,0,1-.41A1.55,1.55,0,0,0,127.48,64.7Z"/>
          <path id="path2919" d="M134.33,64.21a2.47,2.47,0,0,1-.7,1.78,2.21,2.21,0,0,1-1.64.73,3.19,3.19,0,0,1-1.1-.2s0,.07,0,.27v1.69c0,.28.22.45.67.53a2,2,0,0,1,.39.1.19.19,0,0,1,.08.16c0,.13-.09.19-.26.18a9.89,9.89,0,0,0-2.07,0,.41.41,0,0,1-.23,0s0-.07,0-.15.11-.14.32-.23.27-.25.27-.54V63.63q0-.6-.33-.75c-.26-.11-.39-.21-.39-.28s.08-.15.23-.19a2.11,2.11,0,0,0,.61-.26,1.17,1.17,0,0,1,.32-.15c.11,0,.21.1.28.31s.17.45.2.45l.49-.27a2.06,2.06,0,0,1,1-.28,2,2,0,0,1,1.32.45,1.91,1.91,0,0,1,.62,1.55Zm-1,.44a2.07,2.07,0,0,0-.45-1.42,1.12,1.12,0,0,0-.87-.43,1.19,1.19,0,0,0-.74.27,1.13,1.13,0,0,0-.47,1v1.59c0,.1.14.21.43.32a2.68,2.68,0,0,0,1,.19c.74,0,1.11-.5,1.11-1.49Z"/>
          <path id="path2921" d="M142.65,66.08c0,.08-.14.2-.43.36a1.49,1.49,0,0,1-.69.24.5.5,0,0,1-.38-.22q-.17-.21-.24-.21a4.13,4.13,0,0,0-.53.23,2.3,2.3,0,0,1-1,.23,1.11,1.11,0,0,1-.77-.27,1,1,0,0,1-.34-.81c0-.65.74-1.11,2.22-1.39.26,0,.39-.15.39-.31v-.36c0-.61-.25-.92-.81-.92-.16,0-.31.15-.46.43a.74.74,0,0,1-.62.47c-.3,0-.46-.1-.46-.39s.23-.39.69-.63a3,3,0,0,1,1.38-.37c.76,0,1.13.36,1.12,1.08l0,2.31c0,.25.1.37.31.37l.24,0,.2,0c.11,0,.16.07.16.22Zm-1.73-1.28q0-.14-.06-.18a.3.3,0,0,0-.22,0c-.9.16-1.36.45-1.36.88s.24.65.71.65a1.69,1.69,0,0,0,.57-.11c.24-.08.35-.18.35-.3Z"/>
          <path id="path2923" d="M146.42,66.09c0,.18-.16.33-.49.46a2.51,2.51,0,0,1-.89.17c-.81,0-1.22-.43-1.22-1.3v-2a1.06,1.06,0,0,0-.06-.47c0-.06-.17-.12-.41-.17q-.09,0-.09-.18c0-.11,0-.17.07-.19a2.65,2.65,0,0,0,1.06-1.07c0-.07.12-.09.24-.07a.18.18,0,0,1,.13.15l0,.7a.16.16,0,0,0,0,.11s.08,0,.18,0h1.25q.1,0,0,.27c-.09.21-.22.32-.38.32H145c-.15,0-.24,0-.27.07s0,.12,0,.27V65a2,2,0,0,0,.12.88c.11.16.36.24.76.24a2.52,2.52,0,0,0,.48-.07l.3-.06s.06,0,.06.08Z"/>
          <path id="path2925" d="M154.55,66.08c0,.08-.14.2-.43.36a1.57,1.57,0,0,1-.69.24.5.5,0,0,1-.38-.22q-.18-.21-.24-.21a4.13,4.13,0,0,0-.53.23,2.33,2.33,0,0,1-1,.23,1.11,1.11,0,0,1-.77-.27,1,1,0,0,1-.34-.81c0-.65.74-1.11,2.22-1.39.26,0,.39-.15.39-.31v-.36c0-.61-.25-.92-.81-.92-.16,0-.32.15-.46.43a.74.74,0,0,1-.62.47c-.31,0-.46-.1-.46-.39s.23-.39.68-.63a3,3,0,0,1,1.38-.37c.76,0,1.14.36,1.13,1.08l0,2.31c0,.25.1.37.31.37l.23,0,.21,0c.11,0,.16.07.16.22Zm-1.73-1.28a.22.22,0,0,0-.06-.18.32.32,0,0,0-.23,0c-.9.16-1.35.45-1.35.88s.24.65.7.65a1.75,1.75,0,0,0,.58-.11c.23-.08.35-.18.35-.3Z"/>
          <path id="path2927" d="M161.17,66.09c0,.18-.16.33-.49.46a2.51,2.51,0,0,1-.89.17c-.81,0-1.22-.43-1.22-1.3v-2a1.06,1.06,0,0,0-.06-.47.75.75,0,0,0-.41-.17q-.09,0-.09-.18c0-.11,0-.17.07-.19a2.58,2.58,0,0,0,1-1.07.23.23,0,0,1,.25-.07.16.16,0,0,1,.12.15l0,.7a.16.16,0,0,0,0,.11s.08,0,.18,0H161q.1,0,0,.27c-.09.21-.22.32-.39.32h-.84c-.15,0-.24,0-.27.07s0,.12,0,.27V65a2,2,0,0,0,.12.88c.11.16.36.24.76.24a2.52,2.52,0,0,0,.48-.07l.29-.06c.05,0,.07,0,.07.08Z"/>
          <path id="path2929" d="M164,60.13a.72.72,0,0,1-.19.48.58.58,0,0,1-.42.22.66.66,0,0,1-.44-.16.53.53,0,0,1-.16-.41.64.64,0,0,1,.2-.46.61.61,0,0,1,.44-.21Q164,59.59,164,60.13Zm.63,6.35c0,.11-.07.17-.14.18a1.4,1.4,0,0,1-.27,0,9.94,9.94,0,0,0-1.64,0,.65.65,0,0,1-.28,0,.26.26,0,0,1-.05-.18c0-.09.1-.16.29-.21s.33-.28.33-.63V64.17a1.52,1.52,0,0,0-.09-.62.81.81,0,0,0-.51-.38c-.12,0-.17-.1-.17-.18s.08-.19.25-.24a3.35,3.35,0,0,0,.83-.39,1.1,1.1,0,0,1,.36-.2c.15,0,.23.09.22.29,0,1,0,2,0,3a1,1,0,0,0,.11.52.64.64,0,0,0,.45.24q.36.09.33.27Z"/>
          <path id="path2931" d="M174.49,66.47c0,.12-.06.18-.17.17a15.26,15.26,0,0,0-2.14,0c-.14,0-.22,0-.22-.19s.1-.18.3-.18.38-.22.38-.62V64.16q0-1.26-1-1.26a2.47,2.47,0,0,0-1,.2c-.27.12-.41.23-.42.35l0,2.23a.94.94,0,0,0,.08.46.49.49,0,0,0,.28.11c.33,0,.49.12.49.21a.37.37,0,0,1,0,.14s-.09.06-.21.05q-.63,0-1.86,0a.48.48,0,0,1-.22,0s0-.08,0-.16.1-.16.32-.18.34-.24.34-.63V64.15a1.42,1.42,0,0,0-.28-1,.75.75,0,0,0-.63-.31,2.24,2.24,0,0,0-1,.23c-.3.15-.45.31-.45.49v2a.57.57,0,0,0,.18.49,1.21,1.21,0,0,0,.59.15c.16,0,.23.06.23.16s-.06.16-.18.16a16.5,16.5,0,0,0-2,.08.61.61,0,0,1-.28,0,.17.17,0,0,1,0-.14q0-.14.42-.24c.17,0,.25-.26.25-.66V63.93c0-.44-.12-.69-.35-.76a1.7,1.7,0,0,1-.37-.12.15.15,0,0,1-.06-.13c0-.07.19-.21.58-.43a2.58,2.58,0,0,1,.76-.34c.08,0,.15.11.2.34s.1.34.13.34a1.2,1.2,0,0,0,.34-.18,3.75,3.75,0,0,1,.63-.32,2.55,2.55,0,0,1,.95-.18,1.34,1.34,0,0,1,.68.16,1.32,1.32,0,0,1,.36.31l.14.17.29-.17a4.42,4.42,0,0,1,.67-.31,2.84,2.84,0,0,1,.93-.16c1,0,1.53.56,1.53,1.69v1.81a.59.59,0,0,0,.15.46,1.34,1.34,0,0,0,.53.19c.2,0,.3.09.3.17Z"/>
          <path id="path2933" d="M179.23,65.68c0,.16-.22.36-.65.6a3.23,3.23,0,0,1-1.52.4,2,2,0,0,1-1.43-.56,2.07,2.07,0,0,1-.61-1.57,2.4,2.4,0,0,1,.69-1.79,2.18,2.18,0,0,1,1.58-.63,1.71,1.71,0,0,1,1,.36,1.48,1.48,0,0,1,.57.72.19.19,0,0,0,.15.15.18.18,0,0,1,.15.2c0,.15-.19.28-.55.39l-2.59.77c.17.89.63,1.34,1.37,1.34a3.09,3.09,0,0,0,1.47-.47.46.46,0,0,1,.24-.08c.06,0,.09.06.09.17Zm-1.33-2.25a.73.73,0,0,0-.25-.55.87.87,0,0,0-.61-.23c-.69,0-1,.5-1,1.49v.13l1.53-.46C177.78,63.74,177.9,63.61,177.9,63.43Z"/>
        </g>
      </g>
    </g>
  </g>
</svg>
