<svg xmlns="http://www.w3.org/2000/svg" viewBox="0 0 265.25 70"><defs><style>.cls-1{fill:#fff;}.cls-2{fill:#639;}</style></defs><title>Gatsby_text</title><g id="Layer_2" data-name="Layer 2"><g id="Layer_1-2" data-name="Layer 1"><path d="M157.25,30h7V55h-7V51.75a8.51,8.51,0,0,1-7.75,4c-7.75,0-12.75-6-12.75-13.25,0-7.5,5-13.25,12.25-13.25,2,0,5.75.25,8,4V30Zm-13,12.5a6.69,6.69,0,0,0,7,7,6.84,6.84,0,0,0,7-7,6.69,6.69,0,0,0-7-7A6.84,6.84,0,0,0,144.25,42.5ZM178,36V55h-7V36h-2.75V30H171V21.5h7V30h4.75v6Zm21.25,0a6.29,6.29,0,0,0-4-1.75c-1.75,0-2.75.75-2.75,2,0,.75.25,1.5,2.25,2.25l1.75.5c2,.75,5,1.5,6.25,3.5A7.15,7.15,0,0,1,204,46.75,8,8,0,0,1,201.25,53a11.07,11.07,0,0,1-7.5,2.75A12.76,12.76,0,0,1,184,51.5l3.75-4.25c1.5,1.5,3.5,3,5.5,3s3.5-1,3.5-2.75A2.68,2.68,0,0,0,194.5,45l-1.5-.5a15.86,15.86,0,0,1-5.25-3,6.4,6.4,0,0,1-2-4.75,8.23,8.23,0,0,1,2.5-5.75,10.68,10.68,0,0,1,6.5-1.75,12.59,12.59,0,0,1,8,2.75Zm15.25-2.75a9.49,9.49,0,0,1,8-4c7.25,0,12.25,5.75,12.25,13.25s-5,13.25-12.5,13.25a9.6,9.6,0,0,1-8-4V55H207.5V13h7Zm-.75,9.25a6.69,6.69,0,0,0,7,7,6.84,6.84,0,0,0,7-7,7,7,0,0,0-14,0Zm32.5,8.75L234.25,30h8.25l7.75,14.25,7-14.25h8l-20,38.25h-8ZM135,34.25H117.5v7h9.25c-1.5,4.75-5,8-11.5,8-7.25,0-12.5-6-12.5-13.25s5-13.5,12.25-13.5a13.51,13.51,0,0,1,10.5,5.25L131.25,24A19.79,19.79,0,0,0,115,15.75,20.11,20.11,0,0,0,95,36c0,11.25,8.5,20.25,20,20.25s20-9,20-20.25A4.08,4.08,0,0,0,135,34.25Z"/><path class="cls-1" d="M62.5,35H45v5H57A22.66,22.66,0,0,1,42.5,56.25L13.75,27.5A22.49,22.49,0,0,1,35,12.5,23.08,23.08,0,0,1,53.5,22l3.75-3.25A27.48,27.48,0,0,0,8.25,29l33,33A28.13,28.13,0,0,0,62.5,35Zm-55,.25a26.7,26.7,0,0,0,8,19,27.14,27.14,0,0,0,19,8Z"/><path class="cls-2" d="M35,0A35,35,0,1,0,70,35,35.1,35.1,0,0,0,35,0ZM15.5,54.5a27.14,27.14,0,0,1-8-19l27.25,27A28.38,28.38,0,0,1,15.5,54.5ZM41,61.75,8.25,29a27.48,27.48,0,0,1,49-10.25L53.5,22A23.08,23.08,0,0,0,35,12.5a22.74,22.74,0,0,0-21.25,15L42.5,56.25A22.66,22.66,0,0,0,57,40H45V35H62.5A27.58,27.58,0,0,1,41,61.75Z"/></g></g></svg>