<svg xmlns="http://www.w3.org/2000/svg" viewBox="0 0 70 70">
  <defs>
    <style>.cls-1{fill:#f7df1e;}</style>
  </defs>
  <title>Javascript</title>
  <g id="Layer_2" data-name="Layer 2">
    <g id="Layer_1-2" data-name="Layer 1">
      <path class="cls-1" d="M0,0H70V70H0Z"/>
      <path d="M18.41,58.5l5.35-3.24c1,1.83,2,3.38,4.23,3.38s3.53-.85,3.53-4.14V32.14h6.57V54.6c0,6.81-4,9.91-9.82,9.91-5.26,0-8.31-2.72-9.86-6m23.26-.71L47,54.69c1.41,2.3,3.25,4,6.49,4,2.72,0,4.46-1.37,4.46-3.25,0-2.25-1.78-3-4.79-4.37l-1.65-.7c-4.74-2-7.89-4.56-7.89-9.92,0-4.93,3.76-8.69,9.63-8.69,4.18,0,7.19,1.46,9.35,5.26L57.5,40.31c-1.13-2-2.35-2.82-4.23-2.82a2.87,2.87,0,0,0-3.15,2.82c0,2,1.23,2.78,4,4l1.65.7c5.59,2.4,8.74,4.84,8.74,10.34,0,5.92-4.65,9.16-10.9,9.16s-10.06-2.91-12-6.72"/>
    </g>
  </g>
</svg>
