<svg xmlns="http://www.w3.org/2000/svg" viewBox="0 0 264.95 70">
  <title>MongoDB_text</title>
  <g id="Layer_2" data-name="Layer 2">
    <g id="Layer_1-2" data-name="Layer 1">
      <path fill="#10aa50" d="M30.86,27.86C27.17,11.59,19.49,7.26,17.53,4.2A34.6,34.6,0,0,1,15.38,0a4.24,4.24,0,0,1-1.52,3.45C11.39,5.65.92,14.19,0,32.67c-.83,17.24,12.67,27.86,14.45,29a3.93,3.93,0,0,0,3.85-.6c6.51-4.47,15.39-16.36,12.53-33.17"/>
      <path fill="#b8c4c2" d="M15.94,52.45c-.34,4.27-.58,6.75-1.44,9.19,0,0,.56,4.06,1,8.36h1.41a76.35,76.35,0,0,1,1.53-9C16.58,60.1,16,56.2,15.94,52.45Z"/>
      <path fill="#12924f" d="M18.4,61h0c-1.84-.85-2.37-4.84-2.46-8.55a173.5,173.5,0,0,0,.4-18.39c-.1-3.21.05-29.8-.79-33.69a31.42,31.42,0,0,0,2,3.82c2,3.07,9.65,7.4,13.33,23.67C33.73,44.64,24.89,56.5,18.4,61Z"/>
      <path fill="#21313c" d="M261,55.11a4,4,0,1,1,4-4,3.94,3.94,0,0,1-3.84,4H261m0-7.63a3.64,3.64,0,1,0,3.61,3.66h0a3.58,3.58,0,0,0-3.51-3.65H261m1,6.16-1-2.22h-.83v2.22h-.61v-5h1.49c1.11,0,1.58.48,1.58,1.41a1.24,1.24,0,0,1-1,1.35l1.06,2.29Zm-1.84-2.74H261c.7,0,1-.24,1-.89s-.25-.86-1.05-.86h-.8Z"/>
      <path fill="#21313c" d="M201.48,51.47c1.08.87,3.24,1.22,5.15,1.22a10,10,0,0,0,7.26-2.59c2.4-2.19,4.06-5.54,4.06-10.89,0-5.14-1.95-9.31-6-11.76a16,16,0,0,0-8.54-2,7,7,0,0,0-2.52.31,1.31,1.31,0,0,0-.47.72c-.1.91-.1,7.88-.1,12s0,10.11.1,10.84a3.17,3.17,0,0,0,1,2.13m-10.27-28.3c.88,0,4.2.15,5.75.15,2.89,0,4.88-.15,10.29-.15,4.53,0,8.34,1.22,11.06,3.56a14.8,14.8,0,0,1,5.06,11.66c0,6.86-3.13,10.83-6.28,13.07s-7.21,3.67-13,3.67c-3.09,0-8.39-.11-12.81-.16h-.09c-.21-.4.37-2,.74-2a6.63,6.63,0,0,0,2.07-.41c.94-.39,1.16-.86,1.26-2.54.15-3.16.1-6.92.1-11.2,0-3,.05-9,0-10.89-.15-1.57-.82-2-2.17-2.29a28,28,0,0,0-2.89-.45,5,5,0,0,1,.95-2"/>
      <path fill="#21313c" d="M236.12,25.76c-.2,0-.46.56-.46.82,0,1.83-.1,6.61-.1,9.92a.3.3,0,0,0,.25.25c.67.06,2.32.11,3.71.11a8.88,8.88,0,0,0,3.7-.56,4.8,4.8,0,0,0,2.41-4.53c0-4.43-3.09-6.11-7.66-6.11a14.49,14.49,0,0,0-1.86.1M247.8,46.12c0-4.48-3.3-7-9.32-7a23.7,23.7,0,0,0-2.62,0c-.16.05-.31.15-.31.25,0,3.21-.06,8.35.1,10.38a3.39,3.39,0,0,0,1.49,2.44,10.33,10.33,0,0,0,4,.56c3.55,0,6.7-2,6.7-6.66m-21-22.85c.47,0,1.84.15,5.34.15,3.29,0,6-.1,9.15-.1,4,0,9.42,1.43,9.42,7.33A7.14,7.14,0,0,1,246,37c-.15.05-.15.15,0,.2,3.81,1,7.15,3.31,7.15,7.79s-2.72,7.12-6.68,8.85A21.25,21.25,0,0,1,238,55.28c-2.32,0-8.52-.25-12-.21-.36-.15.33-1.78.63-2a9.76,9.76,0,0,0,2.34-.37c1.23-.3,1.38-.7,1.53-2.53.11-1.58.11-7.23.11-11.25,0-5.5.05-9.21,0-11,0-1.42-.57-1.88-1.55-2.14-.77-.15-2.05-.3-3.08-.45-.26-.26.53-1.79.79-2"/>
      <path fill="#21313c" d="M42.26,55.11a2.09,2.09,0,0,1-.16-1,1.28,1.28,0,0,1,.16-.69,19.09,19.09,0,0,0,2-.4c.91-.23,1.25-.73,1.31-1.89.15-2.74.16-7.89.1-11.51v-.1a1.49,1.49,0,0,0-.48-1.3A10.41,10.41,0,0,0,42.43,37c-.43-.13-.67-.35-.66-.62s.29-.58.85-.69a32.17,32.17,0,0,0,6.93-1.79,1,1,0,0,1,.21.72c0,.16,0,.33,0,.5,0,.51-.1,1.1-.1,1.67a.38.38,0,0,0,.65.22c2.92-2.29,5.54-3.1,6.88-3.1a5.91,5.91,0,0,1,5.26,3.22.34.34,0,0,0,.58,0c2.69-2,5.35-3.25,7.13-3.25,4.21,0,6.73,3.15,6.73,8.43,0,1.51,0,3.44,0,5.23,0,1.58,0,3,0,4.08a1.42,1.42,0,0,0,.84,1.07,10.88,10.88,0,0,0,2.63.65h0A3.85,3.85,0,0,1,80,55.09c-.27,0-.66,0-1.14-.05-.88,0-2.08-.1-3.47-.1-2.8,0-4.26.05-5.66.14a4.28,4.28,0,0,1,0-1.71A14.09,14.09,0,0,0,71.46,53c.89-.29,1.15-.69,1.21-1.88,0-.84.18-8.24-.11-10a4.47,4.47,0,0,0-4.64-4,8.14,8.14,0,0,0-4.63,1.77.74.74,0,0,0-.17.43v0a18.22,18.22,0,0,1,.21,3.73c0,1,0,2,0,3,0,2,0,4,0,5.43a1.37,1.37,0,0,0,1.08,1.42l.68.16c.4.09.82.2,1.44.29a2.68,2.68,0,0,1,0,1.29,1.16,1.16,0,0,1-.18.43c-1.56,0-3.15-.1-5.46-.1-.7,0-1.84,0-2.84.06l-2,0a1.91,1.91,0,0,1-.15-.88A1.48,1.48,0,0,1,56,53.4l.62-.11c.54-.1,1-.18,1.44-.29.76-.24,1-.66,1.11-1.63A78,78,0,0,0,59.12,41c-.54-2.62-2-4-4.43-4a8.3,8.3,0,0,0-4.63,1.76,1.4,1.4,0,0,0-.43,1.05V42.5c0,3.28,0,7.36.06,9.12A1.45,1.45,0,0,0,51,53.05c.22.06.61.13,1,.2l.84.14a3.71,3.71,0,0,1-.14,1.72c-.45,0-1,0-1.63,0-1,0-2.17-.1-3.53-.1-1.61,0-2.73.06-3.63.1-.6,0-1.13,0-1.65,0"/>
      <path fill="#21313c" d="M93.91,36.08a4.47,4.47,0,0,0-2.46.69c-1.78,1.09-2.69,3.26-2.69,6.45,0,6,3,10.14,7.27,10.14a4.61,4.61,0,0,0,3.13-1.11c1.32-1.07,2-3.27,2-6.33,0-5.88-2.93-9.84-7.27-9.84m.82,19.49c-7.73,0-10.48-5.67-10.48-11A9.81,9.81,0,0,1,88.75,36a13.72,13.72,0,0,1,7-2.06c5.9,0,10,4.24,10,10.32A10.69,10.69,0,0,1,101,53.67a13.6,13.6,0,0,1-6.24,1.9"/>
      <path fill="#21313c" d="M172.63,36.08a4.37,4.37,0,0,0-2.46.69c-1.79,1.09-2.7,3.26-2.7,6.45,0,6,3,10.14,7.27,10.14a4.57,4.57,0,0,0,3.14-1.11c1.32-1.07,2-3.27,2-6.33,0-5.88-2.92-9.84-7.27-9.84m.82,19.49c-7.73,0-10.48-5.67-10.48-11a9.8,9.8,0,0,1,4.5-8.62,13.74,13.74,0,0,1,7-2.06c5.9,0,10,4.24,10,10.32,0,4.13-1.64,7.39-4.76,9.42a13.41,13.41,0,0,1-6.24,1.91"/>
      <path fill="#21313c" d="M146.59,35.88c-2.38,0-3.92,1.88-3.92,4.79s1.33,6.38,5.06,6.38a3.67,3.67,0,0,0,2.38-.92A6,6,0,0,0,151.55,42c0-3.8-1.85-6.07-4.94-6.07M146.3,56a4,4,0,0,0-1.93.48c-1.88,1.2-2.76,2.41-2.76,3.81a4.09,4.09,0,0,0,1.6,3.28,8.16,8.16,0,0,0,5.46,1.67c4.63,0,6.7-2.49,6.7-4.95a3.51,3.51,0,0,0-2.63-3.52,20.94,20.94,0,0,0-6.43-.77m.3,11.8a10,10,0,0,1-6.48-1.9,6.07,6.07,0,0,1-2.41-4.5,3.5,3.5,0,0,1,.91-2.28,24.43,24.43,0,0,1,4.2-3.36.23.23,0,0,0,.13-.21.22.22,0,0,0-.16-.21,4.41,4.41,0,0,1-3-2.89.17.17,0,0,0,0-.11.67.67,0,0,1,.27-.83c.3-.22.78-.5,1.29-.8a17.49,17.49,0,0,0,2.07-1.35.34.34,0,0,0,0-.48l-.07,0c-3.15-1.06-4.74-3.4-4.74-7a7,7,0,0,1,2.91-5.72A13.36,13.36,0,0,1,148,33.9h.12a13.46,13.46,0,0,1,5,1.11,8,8,0,0,0,2.94.47,4,4,0,0,0,3.19-1.21,3.12,3.12,0,0,1,.17.91,3.37,3.37,0,0,1-.58,2.09,2.58,2.58,0,0,1-2,.86h-.25a7,7,0,0,1-1.2-.2l-.2.07c-.06.09,0,.19,0,.32l0,.08a14.57,14.57,0,0,1,.29,2c0,3.75-1.48,5.38-3.08,6.59a10.4,10.4,0,0,1-5.3,2h0l-.61.05-.6,0h-.05c-.34.1-1.25.53-1.25,1.33s.41,1.49,2.37,1.64l1.26.09a39.15,39.15,0,0,1,7.33.92A5.08,5.08,0,0,1,159,57.94c0,3.36-2.39,6.52-6.39,8.45a13.76,13.76,0,0,1-6.05,1.36"/>
      <path fill="#21313c" d="M134.78,53.32a9.16,9.16,0,0,1-2.94-.76,1.41,1.41,0,0,1-.36-.72c-.1-1.58-.1-6.16-.1-9.16a10.89,10.89,0,0,0-1.45-6.1,6.16,6.16,0,0,0-5.24-2.75c-2,0-4.69,1.37-6.9,3.25-.05.06-.39.38-.38-.12s.08-1.52.13-2.17a1.1,1.1,0,0,0-.34-.94,30.9,30.9,0,0,1-7,1.83c-1.09.21-1.37,1.26-.2,1.63h0a10.08,10.08,0,0,1,2.65,1.16,1.4,1.4,0,0,1,.41,1.27c0,3.41,0,8.65-.11,11.5,0,1.12-.36,1.53-1.18,1.74l.08,0a17.84,17.84,0,0,1-1.91.36,2.74,2.74,0,0,0,0,2c.52,0,3.13-.15,5.3-.15,3,0,4.53.15,5.3.15a2.86,2.86,0,0,0,.21-2,11.66,11.66,0,0,1-2.12-.31c-.82-.2-1-.61-1.08-1.53-.1-2.39-.1-7.48-.1-10.94a2,2,0,0,1,.57-1.68,6.76,6.76,0,0,1,4.22-1.53,4.6,4.6,0,0,1,3.13,1.07,4.32,4.32,0,0,1,1.47,2.87c.21,1.93.15,5.81.15,9.16,0,1.83-.15,2.29-.82,2.49a8.3,8.3,0,0,1-2.11.41,2.79,2.79,0,0,0,0,2c1.34,0,2.89-.15,5.15-.15,2.83,0,4.63.15,5.35.15a2.83,2.83,0,0,0,.21-2"/>
    </g>
  </g>
</svg>
