<svg xmlns="http://www.w3.org/2000/svg" viewBox="0 0 67.89 70">
  <defs>
    <style>.cls-1{fill:#336791;}.cls-2{fill:#fff;}</style>
  </defs>
  <title>PostgresQL</title>
  <g id="Layer_2" data-name="Layer 2">
    <g id="Layer_1-2" data-name="Layer 1">
      <g id="Layer_3">
        <path d="M50.72,51c.45-3.71.31-4.25,3.08-3.65l.7.06A15.88,15.88,0,0,0,61,46.27c3.52-1.63,5.6-4.35,2.14-3.64-7.91,1.63-8.45-1-8.45-1,8.35-12.39,11.84-28.11,8.82-32C55.33-.87,41.11,4.09,40.87,4.22l-.08,0a27.52,27.52,0,0,0-5.27-.55,13,13,0,0,0-8.35,2.5S1.8-4.26,3,19.33c.25,5,7.19,38,15.48,28,3-3.64,5.95-6.72,5.95-6.72a7.67,7.67,0,0,0,5,1.28l.14-.12a5.79,5.79,0,0,0,.06,1.42c-2.13,2.38-1.51,2.8-5.77,3.68s-1.78,2.47-.13,2.88c2,.51,6.65,1.22,9.79-3.17l-.12.5c.83.67.78,4.81.9,7.77a27.34,27.34,0,0,0,.92,7.35c.6,1.63,1.31,5.82,6.92,4.62,4.68-1,8.26-2.45,8.59-15.89"/>
        <path d="M40.3,70a7.36,7.36,0,0,1-5.23-2,9.89,9.89,0,0,1-2.47-4.36l-.15-.44c-.72-1.93-1-4.7-1.1-8.25,0-.53,0-1.09-.05-1.66,0-.36,0-.77,0-1.2a12.67,12.67,0,0,1-8.25.5,6.87,6.87,0,0,1-3.61-2.07,6,6,0,0,1-5.95,1.28c-2.24-.74-4.24-2.83-6.11-6.37a56.64,56.64,0,0,1-3.78-9.66A90.81,90.81,0,0,1,0,19.48C-.33,12.05,1.68,6.73,6,3.67,9.6,1.14,14.49.36,20.56,1.36a38.62,38.62,0,0,1,6.21,1.56A16.42,16.42,0,0,1,35.57.75a32.12,32.12,0,0,1,5,.46A29.71,29.71,0,0,1,49.25,0c6.93.08,12.67,2.79,16.61,7.82,2.69,3.44,1.69,10.23.38,15.32a68.52,68.52,0,0,1-7.18,17.08,21.14,21.14,0,0,0,3.51-.47c3.84-.79,4.91,1.47,5.14,2.18,1.19,3.6-3.86,6.27-5.44,7a19.06,19.06,0,0,1-7.91,1.37h-.12l-.48,0c0,.12,0,.24,0,.36s0,.36-.06.55c-.18,6.85-1.17,11.2-3.2,14.09-2.14,3-5.11,3.91-7.72,4.47A11.66,11.66,0,0,1,40.3,70ZM35.22,44.81c1.68,1.34,1.82,3.79,2,8.36,0,.55,0,1.09,0,1.59.06,1.49.2,5,.74,6.45.08.21.15.43.23.66.6,1.86.86,2.64,3.32,2.11,2.17-.47,3.29-.88,4.14-2.1,1.28-1.82,2-5.52,2.13-11l2.94.07-2.92-.35c0-.24.06-.46.08-.67.26-2.19.46-3.92,2-5A4.45,4.45,0,0,1,53,44.19a4.08,4.08,0,0,1-1.12-2L51.59,41l.69-1a61.57,61.57,0,0,0,8.25-18.22c1.64-6.31,1.18-9.65.7-10.28C54.7,3.09,43.33,6.5,42.08,6.91L41.86,7l-1.1.2-.56-.12a25.39,25.39,0,0,0-4.73-.48,10.11,10.11,0,0,0-6.53,1.9l-1.34,1L26.05,8.9c-3-1.24-12-3.74-16.65-.43C6.82,10.3,5.65,13.9,5.91,19.18A88.52,88.52,0,0,0,9.3,34.48c2.81,9.07,5.29,11.59,6,11.8a2.76,2.76,0,0,0,.9-.8c3.05-3.67,6-6.74,6.08-6.87L24,36.82,26,38.19a4.8,4.8,0,0,0,2.29.81l4.88-4.16-.71,7.25a2.57,2.57,0,0,0,0,.68l.21,1.37-.93,1,0,0,2.28,1.06Z"/>
        <path fill="#336791" d="M63.17,42.63c-7.91,1.63-8.45-1.05-8.45-1.05,8.35-12.38,11.84-28.1,8.82-31.95C55.33-.87,41.11,4.09,40.87,4.22l-.08,0a27.52,27.52,0,0,0-5.27-.55,13,13,0,0,0-8.35,2.5S1.8-4.26,3,19.33c.25,5,7.19,38,15.48,28,3-3.64,5.95-6.72,5.95-6.72a7.67,7.67,0,0,0,5,1.28l.14-.12a5.79,5.79,0,0,0,.06,1.42c-2.13,2.38-1.51,2.8-5.77,3.68s-1.78,2.47-.13,2.88c2,.51,6.65,1.22,9.79-3.17l-.12.5c.83.67,1.42,4.35,1.32,7.69s-.16,5.64.49,7.43,1.32,5.82,6.93,4.62c4.68-1,7.11-3.6,7.45-7.94.24-3.09.78-2.63.81-5.39l.44-1.31c.5-4.18.08-5.53,3-4.9l.7.06A15.88,15.88,0,0,0,61,46.27c3.52-1.63,5.6-4.35,2.14-3.64Z"/>
        <path fill="#fff" d="M40.58,68.18c-4.72,0-6.21-3.74-6.82-5.26-.9-2.24-1.09-10.62-.89-17.92a1,1,0,0,1,1-1,1,1,0,0,1,.95,1c-.23,8.13.09,15.5.75,17.13,1,2.53,2.54,4.74,6.88,3.81,4.18-.89,5.67-2.4,6.37-6.44.53-3.09,1.59-11.89,1.72-13.63a1,1,0,1,1,2,.15c-.13,1.81-1.19,10.6-1.74,13.81-.83,4.8-3,7-7.89,8A10.93,10.93,0,0,1,40.58,68.18Z"/>
        <path fill="#fff" d="M15.24,50.1A3.85,3.85,0,0,1,14,49.9c-3.06-1-6-6-8.64-14.75A88.88,88.88,0,0,1,1.94,19.28C1.61,12.56,3.34,7.81,7.1,5.15c7.41-5.26,19.87-.26,20.4,0A1,1,0,0,1,28,6.38a1,1,0,0,1-1.28.54c-.15-.06-12-4.8-18.54-.17C5.05,9,3.6,13.18,3.9,19.18a88.78,88.78,0,0,0,3.35,15.4C9.62,42.36,12.32,47.26,14.64,48c.35.12,1.44.48,3-1.41,3-3.62,5.78-6.52,5.81-6.54a1,1,0,0,1,1.38,0,1,1,0,0,1,0,1.38s-2.75,2.88-5.72,6.45A5.11,5.11,0,0,1,15.24,50.1Z"/>
        <path fill="#fff" d="M54.66,42.47a1,1,0,0,1-.54-.17,1,1,0,0,1-.27-1.36c8.42-12.5,11.39-27.58,8.87-30.81C59.54,6.07,55.05,4,49.38,3.83A24.89,24.89,0,0,0,41.28,5l-.15,0a1,1,0,0,1-1.22-.52,1,1,0,0,1,.39-1.24,25.08,25.08,0,0,1,8.84-1.43c6.33.07,11.56,2.51,15.12,7.06,2.4,3.08.82,10.56,0,13.63A65.48,65.48,0,0,1,55.48,42,1,1,0,0,1,54.66,42.47Z"/>
        <path fill="#fff" d="M55.09,48.26a7.51,7.51,0,0,1-3.54-.67,1.9,1.9,0,0,1-1-1.53c-.22-3.76,1.79-4.5,2.91-4.82-.14-.21-.33-.44-.52-.68a13.34,13.34,0,0,1-2.15-3.47c-.1-.24-.43-.82-.8-1.49-2-3.66-6.28-11.27-3.54-15.19,1.26-1.8,3.75-2.53,7.4-2.15a21.74,21.74,0,0,0-4-6.79,18.94,18.94,0,0,0-14.45-6.9,11.77,11.77,0,0,0-8.93,3.34c-5.06,5.1-4.89,14.38-4.88,14.48a1,1,0,0,1-2,.05c0-.42-.2-10.2,5.44-15.9A13.64,13.64,0,0,1,35.48,2.61a20.84,20.84,0,0,1,15.8,7.46c3.12,3.64,4.65,7.65,4.78,9a1.1,1.1,0,0,1-.82,1.3h-.36c-2.46-.4-5.65-.52-6.83,1.16-2,2.92,2,10.06,3.65,13.11.44.79.75,1.35.9,1.71a11.63,11.63,0,0,0,1.87,3,5.25,5.25,0,0,1,1.14,1.88c.08.14,1.17,1.62,7.3.35,1.62-.33,2.59,0,2.89.88.58,1.76-2.63,3.78-4.41,4.61A16.41,16.41,0,0,1,55.09,48.26ZM52.5,45.87c.24.2,1.25.51,3.24.42a14.35,14.35,0,0,0,4.83-1,11,11,0,0,0,2.79-1.8h0c-4,.83-6.87.72-8.47-.34a2.83,2.83,0,0,1-.28-.2l-.41.13C53.24,43.33,52.39,43.57,52.5,45.87Z"/>
        <path fill="#fff" d="M26.55,51a12.9,12.9,0,0,1-3.12-.4c-.31-.08-3-.81-3-2.56,0-1.59,2.31-2.06,3.17-2.24,3-.62,3.2-.87,4.14-2.06.28-.35.62-.79,1.09-1.31h0a2.89,2.89,0,0,1,3.68-.88,4,4,0,0,1,2.16,2.58,3.34,3.34,0,0,1-.42,2.91A9.13,9.13,0,0,1,26.55,51ZM22.6,48.17a4.26,4.26,0,0,0,1.31.57c2.61.65,6.25.69,8.75-2.8a1.49,1.49,0,0,0,.12-1.23,2,2,0,0,0-1-1.31c-.53-.22-.82-.35-1.46.37h0c-.43.48-.74.88-1,1.23-1.2,1.51-1.74,2-5.29,2.76A6.57,6.57,0,0,0,22.6,48.17Zm7-5.05h0Z"/>
        <path fill="#fff" d="M29.42,44.06a1,1,0,0,1-1-.83c0-.13,0-.27-.05-.4A8.9,8.9,0,0,1,22.21,40a10.2,10.2,0,0,1-2.69-8.54,39.53,39.53,0,0,0,.2-8.07c0-.45,0-.78,0-1s0-1.1,2.59-2.4A14.12,14.12,0,0,1,27,18.54c3.32-.35,5.51,1.13,6.17,4.17,1.75,8.1.14,11.68-1,14.3-.22.49-.43,1-.59,1.39l-.15.39c-.62,1.65-1.15,3.08-1,4.14a1,1,0,0,1-.82,1.12ZM21.64,22.69c0,.17,0,.37,0,.61a41.4,41.4,0,0,1-.22,8.45,8.27,8.27,0,0,0,2.16,6.91,7,7,0,0,0,5,2.22,27.47,27.47,0,0,1,.93-2.78l.14-.38c.19-.51.41-1,.64-1.51,1.13-2.5,2.53-5.62.91-13.09A3,3,0,0,0,29,20.56C26.25,19.94,22.46,22,21.64,22.69Z"/>
        <path fill="#fff" d="M27,22.27c-.05.32.58,1.18,1.41,1.29A1.52,1.52,0,0,0,30,22.69c0-.32-.59-.68-1.41-.79s-1.53.05-1.57.37Z"/>
        <path fill="#fff" d="M28.63,23.9H28.4A2.23,2.23,0,0,1,27,23a1.21,1.21,0,0,1-.29-.78.66.66,0,0,1,.26-.41,2.43,2.43,0,0,1,1.68-.24,3.31,3.31,0,0,1,1.15.35c.53.3.57.63.54.8A1.8,1.8,0,0,1,28.63,23.9Zm-1.27-1.57a1.61,1.61,0,0,0,1.13.91,1.3,1.3,0,0,0,1.2-.58,2,2,0,0,0-1.13-.44A2,2,0,0,0,27.36,22.33Z"/>
        <path fill="#fff" d="M52.09,21.62c0,.32-.58,1.17-1.41,1.29A1.53,1.53,0,0,1,49.11,22c0-.32.59-.67,1.41-.78s1.53.05,1.57.37Z"/>
        <path fill="#fff" d="M50.5,23.08a1.66,1.66,0,0,1-1.55-1c-.07-.49.73-.86,1.55-1s1.69,0,1.76.52h0a1.25,1.25,0,0,1-.43.85,1.94,1.94,0,0,1-1.12.62ZM51,21.37a3,3,0,0,0-.49,0c-.86.12-1.29.46-1.27.6a1.4,1.4,0,0,0,1.39.74,1.67,1.67,0,0,0,.94-.52,1.09,1.09,0,0,0,.33-.59h0C51.92,21.53,51.59,21.37,51,21.37Z"/>
        <path fill="#fff" d="M53.28,40.08a1,1,0,0,1-.54-.16,1,1,0,0,1-.27-1.36C54.38,35.7,54,32.77,53.69,30a24.06,24.06,0,0,1-.26-3.68A26.11,26.11,0,0,1,53.78,23a16.42,16.42,0,0,0,.28-3.57,1,1,0,1,1,2-.1,18.8,18.8,0,0,1-.3,4,23.48,23.48,0,0,0-.33,3,22.54,22.54,0,0,0,.25,3.38c.36,3,.77,6.48-1.54,9.94A1,1,0,0,1,53.28,40.08Z"/>
      </g>
    </g>
  </g>
</svg>
