<svg xmlns="http://www.w3.org/2000/svg"
  xmlns:xlink="http://www.w3.org/1999/xlink" viewBox="0 0 241.18 70">
  <defs>
    <style>.cls-1{fill:#646464;}.cls-2{fill:url(#linear-gradient);}.cls-3{fill:url(#linear-gradient-2);}.cls-4{opacity:0.44;isolation:isolate;fill:url(#radial-gradient);}</style>
    <linearGradient id="linear-gradient" x1="969.75" y1="-526.03" x2="1025.12" y2="-573.68" gradientTransform="matrix(0.56, 0, 0, -0.57, -546.91, -295.55)" gradientUnits="userSpaceOnUse">
      <stop offset="0" stop-color="#5a9fd4"/>
      <stop offset="1" stop-color="#306998"/>
    </linearGradient>
    <linearGradient id="linear-gradient-2" x1="1046.53" y1="-602.51" x2="1026.76" y2="-574.53" gradientTransform="matrix(0.56, 0, 0, -0.57, -546.91, -295.55)" gradientUnits="userSpaceOnUse">
      <stop offset="0" stop-color="#ffd43b"/>
      <stop offset="1" stop-color="#ffe873"/>
    </linearGradient>
    <radialGradient id="radial-gradient" cx="-4374.12" cy="-303.09" r="14.75" gradientTransform="matrix(0, -0.24, -1.05, 0, -291.31, -983.1)" gradientUnits="userSpaceOnUse">
      <stop offset="0" stop-color="#b8b8b8" stop-opacity="0.5"/>
      <stop offset="1" stop-color="#7f7f7f" stop-opacity="0"/>
    </radialGradient>
  </defs>
  <title>Python_text_1</title>
  <g id="Layer_2" data-name="Layer 2">
    <g id="Layer_1-2" data-name="Layer 1">
      <g id="g2303">
        <path id="path46" class="cls-1" d="M90.94,29.8c0-7.4-2.11-11.19-6.33-11.4a11.84,11.84,0,0,0-4.91.81,7.08,7.08,0,0,0-2.58,1.36V38.22c2.7,1.7,5.09,2.48,7.18,2.36Q90.93,40.14,90.94,29.8Zm5.2.31a15.71,15.71,0,0,1-2.65,9.36,9.82,9.82,0,0,1-8.22,4.33,14.54,14.54,0,0,1-8.15-2.48v16l-4.53-1.61V20.14a10.17,10.17,0,0,1,2.86-2.36,19.61,19.61,0,0,1,9.82-2.42l.06.07a9,9,0,0,1,8.14,4.33A18.39,18.39,0,0,1,96.14,30.11Z"/>
        <path id="path48" class="cls-1" d="M123.8,40.64q0,7.56-1.52,10.47t-5.79,4.65a22.44,22.44,0,0,1-7.5,1.49l-.75-2.86A36.36,36.36,0,0,0,114,53.28a7.6,7.6,0,0,0,4.52-3.41q1-1.86,1-7.12V41.57a23.18,23.18,0,0,1-9.73,2.1,8.89,8.89,0,0,1-5.88-2.1,7.14,7.14,0,0,1-2.86-5.82V16.91l4.53-1.55v19a5.74,5.74,0,0,0,2,4.68,7.38,7.38,0,0,0,5.07,1.58,12.64,12.64,0,0,0,6.66-2.42V16.05h4.53Z"/>
        <path id="path50" class="cls-1" d="M141.47,43.55c-.54.05-1,.07-1.5.07a8.88,8.88,0,0,1-6-1.84,6.32,6.32,0,0,1-2.13-5.06V18.89h-3.1V16.05h3.1V8.49l4.52-1.61v9.17h5.09v2.84h-5.09v17.7a4.3,4.3,0,0,0,1.37,3.61,6.85,6.85,0,0,0,3.72,1Z"/>
        <path id="path52" class="cls-1" d="M168.87,43.18h-4.53V25.71a8.27,8.27,0,0,0-1.24-4.58,4.53,4.53,0,0,0-4-2.17c-2.07,0-4.67,1.09-7.78,3.28V43.18H146.8V1.43L151.33,0V19a15.73,15.73,0,0,1,9.48-3.16,7.56,7.56,0,0,1,5.82,2.41,8.53,8.53,0,0,1,2.24,6V43.18Z"/>
        <path id="path54" class="cls-1" d="M192.92,29.09a13.88,13.88,0,0,0-1.62-7,6.76,6.76,0,0,0-5.94-3.58q-7.44.43-7.44,10.66A17.56,17.56,0,0,0,179.48,37c1.32,2.66,3.31,4,6,3.94Q192.92,40.83,192.92,29.09Zm5,0a16.08,16.08,0,0,1-3.1,10.1,11.14,11.14,0,0,1-9.41,4.52,10.92,10.92,0,0,1-9.3-4.52,16.3,16.3,0,0,1-3-10.1,14.44,14.44,0,0,1,3.29-9.61,11.31,11.31,0,0,1,9.11-4.15,11.5,11.5,0,0,1,9.17,4.15A14.44,14.44,0,0,1,197.87,29.12Z"/>
        <path id="path56" class="cls-1" d="M223.82,43.18h-4.53V24.72A6.2,6.2,0,0,0,217.47,20a6.61,6.61,0,0,0-4.87-1.64,10.92,10.92,0,0,0-6.14,2.1V43.18h-4.52V19.88a22.36,22.36,0,0,1,7.19-3.71,21.92,21.92,0,0,1,5.45-.81,14,14,0,0,1,3,.32A8.74,8.74,0,0,1,222,18a6.07,6.07,0,0,1,1.86,4.46Z"/>
        <path id="path1948" class="cls-2" d="M27.9,1.59a38.43,38.43,0,0,0-6.51.56c-5.76,1-6.81,3.15-6.81,7.08v5.19H28.2v1.73H9.47A8.5,8.5,0,0,0,1,23.05,25.45,25.45,0,0,0,1,36.9c1,4,3.28,6.9,7.24,6.9h4.68V37.58a8.65,8.65,0,0,1,8.51-8.46H35A6.86,6.86,0,0,0,41.8,22.2v-13c0-3.69-3.11-6.47-6.81-7.08A42.44,42.44,0,0,0,27.9,1.59ZM20.53,5.77A2.6,2.6,0,1,1,18,8.37,2.59,2.59,0,0,1,20.53,5.77Z"/>
        <path id="path1950" class="cls-3" d="M43.5,16.15V22.2A8.73,8.73,0,0,1,35,30.83H21.39a7,7,0,0,0-6.81,6.92v13c0,3.69,3.21,5.87,6.81,6.92a22.73,22.73,0,0,0,13.6,0c3.43-1,6.81-3,6.81-6.92V45.53H28.2V43.8H48.61c4,0,5.44-2.76,6.81-6.9s1.36-8.37,0-13.85c-1-3.94-2.84-6.9-6.81-6.9ZM35.85,49a2.6,2.6,0,1,1-2.56,2.59A2.58,2.58,0,0,1,35.85,49Z"/>
        <path id="text3004" class="cls-1" d="M232.63,12h.79V7h1.88v-.6h-4.55V7h1.88v5M236,12h.68V7.47L238.16,12h.75l1.53-4.53V12h.74V6.44h-1l-1.68,4.77L237.1,6.44H236V12"/>
        <path id="path1894" class="cls-4" d="M46.61,66.46c0,2-8.18,3.54-18.26,3.54S10.1,68.42,10.1,66.46s8.17-3.54,18.25-3.54S46.61,64.51,46.61,66.46Z"/>
      </g>
    </g>
  </g>
</svg>
