<svg xmlns="http://www.w3.org/2000/svg" viewBox="0 0 78.6 70">
  <defs>
    <style>.cls-1{fill:#61dafb;}</style>
  </defs>
  <title>React</title>
  <g id="Layer_2" data-name="Layer 2">
    <g id="Layer_1-2" data-name="Layer 1">
      <path class="cls-1" d="M78.6,35c0-5.21-6.52-10.14-16.51-13.2,2.3-10.19,1.28-18.3-3.24-20.9A7,7,0,0,0,55.26,0V3.59A3.64,3.64,0,0,1,57.09,4c2.18,1.25,3.12,6,2.38,12.12a47.46,47.46,0,0,1-.81,4.71A78.37,78.37,0,0,0,48.48,19.1a76.45,76.45,0,0,0-6.66-8C47,6.23,51.94,3.57,55.28,3.57V0h0c-4.41,0-10.18,3.14-16,8.59C33.44,3.17,27.67.06,23.26.06V3.64c3.32,0,8.24,2.64,13.46,7.46a75.86,75.86,0,0,0-6.61,8,74.66,74.66,0,0,0-10.19,1.76,47.24,47.24,0,0,1-.84-4.65c-.75-6.12.18-10.87,2.34-12.14a3.56,3.56,0,0,1,1.84-.42V.08h0a7.15,7.15,0,0,0-3.62.9c-4.5,2.59-5.51,10.68-3.19,20.84C6.49,24.9,0,29.82,0,35s6.52,10.14,16.52,13.2c-2.31,10.19-1.28,18.3,3.24,20.89a7,7,0,0,0,3.6.9c4.41,0,10.17-3.14,16-8.59,5.83,5.42,11.6,8.53,16,8.53A7.1,7.1,0,0,0,59,69c4.51-2.6,5.51-10.69,3.19-20.85C72.11,45.13,78.6,40.2,78.6,35ZM57.74,24.32c-.59,2.07-1.33,4.2-2.16,6.33-.66-1.28-1.35-2.56-2.1-3.85S52,24.27,51.17,23.06Q54.59,23.56,57.74,24.32ZM50.41,41.38c-1.25,2.17-2.54,4.22-3.87,6.13-2.38.2-4.8.32-7.24.32s-4.84-.12-7.21-.31c-1.33-1.91-2.63-3.94-3.88-6.09s-2.32-4.23-3.33-6.37c1-2.15,2.12-4.3,3.32-6.4s2.53-4.21,3.86-6.12c2.39-.21,4.81-.32,7.24-.32s4.84.11,7.21.31c1.33,1.9,2.63,3.94,3.88,6.09s2.32,4.23,3.33,6.37C52.71,37.14,51.61,39.29,50.41,41.38Zm5.17-2.08c.87,2.15,1.6,4.3,2.21,6.38-2.1.51-4.31.94-6.6,1.28.79-1.23,1.57-2.5,2.31-3.8S54.92,40.58,55.58,39.3ZM39.33,56.4a66.45,66.45,0,0,1-4.45-5.13c1.44.06,2.92.11,4.41.11s3,0,4.45-.11A62.16,62.16,0,0,1,39.33,56.4ZM27.41,47c-2.27-.34-4.47-.75-6.57-1.27.6-2.06,1.33-4.19,2.17-6.32.65,1.28,1.34,2.56,2.1,3.84S26.63,45.74,27.41,47ZM39.25,13.62a66.78,66.78,0,0,1,4.46,5.13c-1.44-.07-2.92-.12-4.41-.12s-3,0-4.45.12A62.37,62.37,0,0,1,39.25,13.62ZM27.4,23.06c-.79,1.23-1.57,2.5-2.31,3.79S23.66,29.42,23,30.7c-.87-2.15-1.6-4.3-2.21-6.38C22.9,23.82,25.11,23.39,27.4,23.06ZM12.9,43.12C7.23,40.7,3.56,37.52,3.56,35S7.23,29.3,12.9,26.9c1.38-.59,2.88-1.12,4.44-1.62A76.53,76.53,0,0,0,20.94,35a77,77,0,0,0-3.56,9.71C15.8,44.25,14.29,43.71,12.9,43.12ZM21.52,66c-2.18-1.25-3.13-6-2.39-12.13.18-1.5.46-3.09.82-4.71a78.47,78.47,0,0,0,10.17,1.75,78.62,78.62,0,0,0,6.67,8c-5.23,4.85-10.13,7.51-13.46,7.51A3.78,3.78,0,0,1,21.52,66Zm38-12.21c.75,6.12-.17,10.88-2.34,12.15a3.63,3.63,0,0,1-1.84.41c-3.32,0-8.24-2.64-13.46-7.46a75.91,75.91,0,0,0,6.62-8,74.93,74.93,0,0,0,10.19-1.76A42.9,42.9,0,0,1,59.52,53.8Zm6.17-10.68c-1.38.59-2.88,1.12-4.44,1.61A75.86,75.86,0,0,0,57.65,35a76,76,0,0,0,3.55-9.71c1.59.49,3.1,1,4.51,1.63,5.67,2.42,9.34,5.59,9.34,8.11S71.36,40.71,65.69,43.12Z"/>
      <circle class="cls-1" cx="39.29" cy="35.01" r="7.32"/>
    </g>
  </g>
</svg>
