<svg xmlns="http://www.w3.org/2000/svg" viewBox="0 0 219.59 70">
  <defs>
    <style>.cls-1{fill:#636466;}.cls-2{fill:#a41e11;}.cls-3{fill:#d82c20;}.cls-4{fill:#fff;}.cls-5{fill:#7a0c00;}.cls-6{fill:#ad2115;}</style>
  </defs>
  <title>Redis_text</title>
  <g id="Layer_2" data-name="Layer 2">
    <g id="Layer_1-2" data-name="Layer 1">
      <path fill="#636466" d="M120.18,21.68A3.31,3.31,0,0,1,116.89,25a5.93,5.93,0,0,0-3.72,1.18,9.23,9.23,0,0,0-2.85,3,19,19,0,0,0-2.55,5.21V46.13a3.38,3.38,0,0,1-3.41,3.28,3.31,3.31,0,0,1-3.29-3.28V21.68a3.26,3.26,0,0,1,3.29-3.23,3.33,3.33,0,0,1,3.41,3.23v.43a8.47,8.47,0,0,1,1.31-1.24,13.62,13.62,0,0,1,7.81-2.42,3.22,3.22,0,0,1,3.29,3.23ZM118.36,33.9A15.36,15.36,0,0,1,133.5,18.39c8.07,0,14.45,6,14.95,14.39v.31a1.75,1.75,0,0,1-.06.56,3,3,0,0,1-3.23,2.49H125.43a8.18,8.18,0,0,0,2.11,4.09,9.59,9.59,0,0,0,6,2.79A10.1,10.1,0,0,0,140,41.47c1.31-1.36,3.85-1.18,4.66-.19a2.84,2.84,0,0,1,0,4,15.71,15.71,0,0,1-11.11,4.1A15.4,15.4,0,0,1,118.36,33.9Zm6.76-3h17.56c-.62-2.48-3.78-6.14-9.18-6.58a8.7,8.7,0,0,0-8.38,6.58Zm54.95,15.2a3.38,3.38,0,0,1-3.36,3.35,3.32,3.32,0,0,1-3.28-2.66A15.17,15.17,0,0,1,165,49.41,15.33,15.33,0,0,1,149.91,34c0-8.5,6.7-15.57,15.08-15.57A14.61,14.61,0,0,1,173.3,21V9.33a3.38,3.38,0,0,1,6.76,0V46.06ZM165,25.15a8,8,0,0,0-5.83,2.55,9,9,0,0,0,0,12.41A8,8,0,0,0,165,42.65a7.94,7.94,0,0,0,5.83-2.54,9,9,0,0,0,0-12.41A7.91,7.91,0,0,0,165,25.15Zm26.89-14.52a3.36,3.36,0,0,1-3.36,3.42,3.39,3.39,0,0,1-3.35-3.42V9.33A3.35,3.35,0,0,1,188.5,6h0a3.3,3.3,0,0,1,3.36,3.35v1.3Zm0,11.24v24.2a3.3,3.3,0,0,1-3.36,3.35,3.34,3.34,0,0,1-3.35-3.32V21.87a3.36,3.36,0,1,1,6.71,0Zm4.26,18.67a3.22,3.22,0,0,1,4.65-.49,11.41,11.41,0,0,0,6.82,2.73,8.26,8.26,0,0,0,4.22-1.18A2.56,2.56,0,0,0,213,39.73a.9.9,0,0,0-.19-.62c-.06-.18-.31-.43-.8-.74a14.51,14.51,0,0,0-5-1.74h-.06a23.6,23.6,0,0,1-5.4-1.61,10.29,10.29,0,0,1-4.28-3.6,7.55,7.55,0,0,1-1.05-3.91,8.7,8.7,0,0,1,3.66-6.82,13.34,13.34,0,0,1,7.63-2.3,16,16,0,0,1,9.31,3.41,3.44,3.44,0,0,1,1,4.6,3.28,3.28,0,0,1-4.59.86c-2-1.3-3.72-2.3-5.72-2.3a6.32,6.32,0,0,0-3.72,1.12,1.91,1.91,0,0,0-1,1.43.66.66,0,0,0,.12.49,1.63,1.63,0,0,0,.69.62,12.52,12.52,0,0,0,4.53,1.49l.06.07h.06A22.54,22.54,0,0,1,214,32a9.69,9.69,0,0,1,4.41,3.67,8.05,8.05,0,0,1,1.18,4.09,9,9,0,0,1-3.91,7.2,14.15,14.15,0,0,1-8.07,2.48,18,18,0,0,1-11-4.28,3.31,3.31,0,0,1-.44-4.59Z"/>
      <path fill="#a41e11" d="M78.48,54C74.12,56.25,51.54,65.53,46.73,68s-7.48,2.48-11.27.66S7.63,57.18,3.3,55.11c-2.16-1-3.3-1.9-3.3-2.73V44.13s31.28-6.81,36.33-8.62,6.81-1.88,11.1-.31,30,6.21,34.25,7.77v8.14c0,.81-1,1.71-3.19,2.87Z"/>
      <path fill="#d82c20" d="M78.48,45.72C74.12,48,51.54,57.27,46.73,59.78s-7.48,2.48-11.27.67S7.63,48.92,3.3,46.86s-4.42-3.5-.17-5.16l33.2-12.85c5.05-1.82,6.81-1.88,11.1-.31s26.75,10.51,31,12.07,4.41,2.84,0,5.11Z"/>
      <path fill="#a41e11" d="M78.48,40.51c-4.36,2.28-26.94,11.56-31.75,14.07s-7.48,2.48-11.27.66S7.63,43.72,3.3,41.65c-2.16-1-3.3-1.9-3.3-2.73V30.67S31.28,23.85,36.33,22s6.81-1.87,11.1-.3,30,6.21,34.25,7.77v8.14c0,.81-1,1.71-3.19,2.86Z"/>
      <path fill="#d82c20" d="M78.48,32.26c-4.36,2.27-26.94,11.55-31.75,14.06S39.25,48.8,35.46,47,7.63,35.46,3.3,33.39s-4.42-3.49-.17-5.15l33.2-12.86c5.05-1.81,6.81-1.87,11.1-.3s26.75,10.51,31,12.07,4.41,2.83,0,5.11Z"/>
      <path fill="#a41e11" d="M78.48,26.55c-4.36,2.28-26.94,11.56-31.75,14.07s-7.48,2.48-11.27.67S7.63,29.77,3.3,27.7C1.14,26.66,0,25.79,0,25V16.71S31.28,9.9,36.33,8.08s6.81-1.87,11.1-.3,30,6.21,34.25,7.77v8.14c0,.81-1,1.71-3.19,2.86Z"/>
      <path fill="#d82c20" d="M78.48,18.29c-4.36,2.28-26.94,11.56-31.75,14.07s-7.48,2.48-11.27.66S7.63,21.5,3.3,19.43s-4.42-3.49-.17-5.15L36.33,1.42c5.05-1.81,6.81-1.87,11.1-.3s26.75,10.51,31,12.06,4.41,2.84,0,5.11Z"/>
      <path fill="#fff" d="M44.46,11.08l-1.58,3.81-2.56-4.25L32.14,9.9l6.1-2.2L36.42,4.33l5.71,2.23L47.51,4.8,46.05,8.29l5.49,2.05ZM29.24,23.36l18.93-2.9-5.71,8.38Z"/>
      <ellipse fill="#fff" cx="24.14" cy="16.38" rx="10.12" ry="3.92"/>
      <path fill="#7a0c00" d="M71.1,15.81,59.91,20.23V11.38Z"/>
      <path fill="#ad2115" d="M59.9,11.38v8.85l-1.21.48L47.51,16.29Z"/>
    </g>
  </g>
</svg>
