<svg xmlns="http://www.w3.org/2000/svg" viewBox="0 0 93.34 70">
  <defs>
    <style>.cls-1{fill:#cd6799;}</style>
  </defs>
  <title>Sass</title>
  <g id="Layer_2" data-name="Layer 2">
    <g id="Layer_1-2" data-name="Layer 1">
      <path class="cls-1" d="M80.37,40.24a19.35,19.35,0,0,0-8.45,2A18.18,18.18,0,0,1,70,37.82a11.9,11.9,0,0,1-.17-3.68,34.44,34.44,0,0,1,1.11-4c0-.17-.2-1-2.08-1s-3.49.35-3.68.85a19,19,0,0,0-.78,2.78c-.33,1.7-3.76,7.79-5.72,11a11.93,11.93,0,0,1-1.29-3.21,11.6,11.6,0,0,1-.17-3.68,30.34,30.34,0,0,1,1.11-4c0-.17-.21-1-2.08-1s-3.5.36-3.69.85-.39,1.65-.78,2.78-4.94,11.29-6.14,13.91c-.61,1.35-1.14,2.42-1.52,3.15h0a.43.43,0,0,1-.06.14c-.33.63-.52,1-.52,1v0c-.25.46-.52.89-.66.89a5.77,5.77,0,0,1,0-2.9c.69-3.53,2.31-9,2.29-9.21s.31-1.06-1.06-1.55a1.71,1.71,0,0,0-1.93.32c-.11,0-.2.29-.2.29s1.48-6.17-2.83-6.17c-2.69,0-6.41,3-8.25,5.61l-6.28,3.43c-1,.56-2,1.12-3,1.65l-.21-.22C16.24,40.33,6.59,36.39,7,28.9c.16-2.73,1.1-9.89,18.54-18.58C39.88,3.24,51.31,5.2,53.28,9.55c2.83,6.21-6.12,17.73-21,19.4-5.66.63-8.63-1.55-9.38-2.37s-.9-.9-1.19-.73c-.48.26-.17,1,0,1.47.44,1.16,2.27,3.2,5.35,4.21,2.73.88,9.36,1.38,17.39-1.72,9-3.48,16-13.15,14-21.25S42.75-2.37,29.84,2.22c-7.67,2.73-16,7-22,12.62C.75,21.49-.37,27.27.09,29.69,1.74,38.28,13.59,43.87,18.33,48l-.65.36C15.31,49.55,6.28,54.27,4,59.27,1.47,64.93,4.44,69,6.4,69.53c6.08,1.69,12.34-1.35,15.7-6.36s2.95-11.52,1.4-14.51a.61.61,0,0,0-.07-.1l1.86-1.09c1.21-.72,2.4-1.38,3.43-1.93a22.67,22.67,0,0,0-1.22,6.21c-.25,3.2,1.06,7.36,2.78,9a3.05,3.05,0,0,0,2.25.73c2,0,2.92-1.67,3.93-3.65,1.22-2.42,2.33-5.23,2.33-5.23s-1.38,7.6,2.37,7.6c1.36,0,2.75-1.77,3.36-2.67v0l.1-.18.22-.35v0c.55-.95,1.78-3.12,3.6-6.71,2.35-4.64,4.62-10.44,4.62-10.44A31,31,0,0,0,54,43.6,35.58,35.58,0,0,0,55.91,48c-.55.77-.89,1.2-.89,1.2h0c-.44.58-.92,1.21-1.45,1.83a51.59,51.59,0,0,0-4.38,5.49,1.49,1.49,0,0,0,.41,2,3.68,3.68,0,0,0,2.28.37,10.2,10.2,0,0,0,3.43-.78,11.55,11.55,0,0,0,3-1.55,6.61,6.61,0,0,0,2.83-5.81A11.55,11.55,0,0,0,60,46.62l.5-.72a77.82,77.82,0,0,0,5.11-8.83,30.66,30.66,0,0,0,.91,3.77,25.57,25.57,0,0,0,1.65,3.75,16.2,16.2,0,0,0-5,6.43c-1.07,3.1-.24,4.5,1.35,4.82a4.82,4.82,0,0,0,2.49-.51,11.53,11.53,0,0,0,3.15-1.62C72,52.36,73.79,50.49,73.69,48a11,11,0,0,0-.78-3.41,17.7,17.7,0,0,1,9-1c8.11,1,9.72,6,9.41,8.15a5.37,5.37,0,0,1-2.57,3.64c-.57.36-.75.48-.7.74s.34.36.82.29a6.34,6.34,0,0,0,4.41-5.65C93.59,45.66,88.81,40.19,80.37,40.24ZM17.77,61.35c-2.69,2.93-6.44,4-8.06,3.1S8.65,59.11,12,56a42.79,42.79,0,0,1,6.32-4.72l1.67-1,.19-.1h0l.41-.26A11.66,11.66,0,0,1,17.77,61.35ZM37.38,48c-.94,2.29-2.9,8.14-4.1,7.81-1-.27-1.65-4.7-.2-9.08a20.38,20.38,0,0,1,3.19-5.85c1.46-1.64,3.08-2.18,3.48-1.52C40.24,40.24,38,46.58,37.38,48Zm16.18,7.74c-.4.21-.77.35-.94.24s.17-.34.17-.34,2-2.18,2.83-3.17c.46-.58,1-1.26,1.58-2v.22C57.2,53.28,54.68,55,53.56,55.75ZM66,52.91c-.29-.21-.24-.89.73-3a11.23,11.23,0,0,1,2.78-3.58,4.76,4.76,0,0,1,.27,1.57A5.16,5.16,0,0,1,66,52.91Z"/>
    </g>
  </g>
</svg>
