<svg xmlns="http://www.w3.org/2000/svg" viewBox="0 0 292 70">
  <title>Typescript</title>
  <g id="Layer_2" data-name="Layer 2">
    <g id="Layer_1-2" data-name="Layer 1">
      <path d="M36,6.34H21V52.6H15V6.34H0V.81H35.88V6.34Z"/>
      <path d="M64.74,15.65l-17,42.89C44.64,66.22,40.46,70,34.93,70A16.62,16.62,0,0,1,31,69.6V64.34a11.65,11.65,0,0,0,3.51.67c3,0,5.26-1.75,6.74-5.4l3-7L29.81,15.65h6.61l10,28.45c.13.41.4,1.35.81,2.84h.27c.13-.54.4-1.49.67-2.7L58.67,15.65Zm10,31.69h-.13V69.73H68.65V15.78h5.94v6.47h.13c3-4.85,7.15-7.41,12.81-7.41,4.72,0,8.5,1.61,11.2,5s4,7.68,4,13.35c0,6.2-1.48,11.19-4.45,14.84s-7.14,5.53-12.4,5.53A12.51,12.51,0,0,1,74.72,47.34Zm-.13-15V37.5a10.9,10.9,0,0,0,3,7.82,9.8,9.8,0,0,0,7.56,3.23,9.91,9.91,0,0,0,8.49-4.18c2.16-2.83,3.11-6.61,3.11-11.46,0-4.18-.95-7.28-2.84-9.71a9.49,9.49,0,0,0-7.68-3.51,10.58,10.58,0,0,0-8.37,3.64,13,13,0,0,0-3.23,9Zm64.74,3.24H113.16c.13,4.18,1.21,7.28,3.37,9.57s5,3.37,8.77,3.37a17.63,17.63,0,0,0,11.46-4.18V49.9c-3.23,2.43-7.55,3.51-12.94,3.51s-9.31-1.62-12.28-5-4.45-8.09-4.45-14.16c0-5.8,1.62-10.39,4.86-14a15.49,15.49,0,0,1,12.13-5.39c4.86,0,8.64,1.61,11.2,4.72s3.91,7.41,3.91,13.08v3Zm-6.07-5c0-3.38-.81-6.07-2.43-8a8.47,8.47,0,0,0-6.75-2.83,9.56,9.56,0,0,0-7.14,3,14.64,14.64,0,0,0-3.65,7.83Zm9.3,20.23V46.8a20.29,20.29,0,0,0,11.33,3.51c4.05,0,7.15-.81,9.17-2.56s3.11-4,3.11-7A8.85,8.85,0,0,0,164,34.39c-1.35-1.62-4.45-3.77-9.17-6.47-5.26-3.1-8.64-5.67-10-7.69a12.76,12.76,0,0,1-2.16-7.15A12.15,12.15,0,0,1,147,3.78C149.85,1.21,153.62,0,158.34,0a28.13,28.13,0,0,1,9.31,1.62V5.39a24.24,24.24,0,0,0-9.71-2,12.45,12.45,0,0,0-8.36,2.7,8.63,8.63,0,0,0-3.11,6.74,8.85,8.85,0,0,0,2.16,6.34c1.35,1.62,4.45,3.64,9.17,6.34s8.1,5.13,9.71,7.28a12,12,0,0,1,2.43,7.42,12.48,12.48,0,0,1-4.18,9.71c-2.7,2.57-6.61,3.78-11.73,3.78a29,29,0,0,1-6.21-.81,36.13,36.13,0,0,1-5.26-2Zm58.67.13a19,19,0,0,1-9.84,2.57,15.79,15.79,0,0,1-12.14-5.13c-3.1-3.51-4.59-8-4.59-13.62,0-5.94,1.76-10.66,5.26-14.43a17.43,17.43,0,0,1,13.36-5.67,19.64,19.64,0,0,1,8.22,1.75v3.78a16.47,16.47,0,0,0-8.76-2.43,13.33,13.33,0,0,0-10.52,4.72q-4,4.66-4.05,12.14c0,4.86,1.21,8.63,3.64,11.6a11.81,11.81,0,0,0,9.71,4.32,16.25,16.25,0,0,0,9.71-3V51Zm22.39-31.83a6.42,6.42,0,0,0-3.91-1.21c-3,0-5.39,1.48-7.28,4.45s-3,7.28-3,12.81V52.6h-3.24V15.65h3.24v8.22h.14a13.08,13.08,0,0,1,4-6.61A9.24,9.24,0,0,1,220,15a10.17,10.17,0,0,1,3.64.68Zm5.67-12.81a2.66,2.66,0,0,1-1.89-.81,2.74,2.74,0,0,1-.81-2,2.26,2.26,0,0,1,.81-1.89,2.52,2.52,0,0,1,1.89-.68,3.58,3.58,0,0,1,2,.68,2.45,2.45,0,0,1,.81,1.89,2.74,2.74,0,0,1-.81,2A3,3,0,0,1,229.29,6.34Zm-1.62,46.4v-37H231v37Zm15-6.61h-.14v23.6h-3.37V15.78h3.37v7.69h.14A14.72,14.72,0,0,1,256.4,15c4.72,0,8.36,1.62,11.06,4.86s3.91,7.68,3.91,13.21c0,6.21-1.49,11.2-4.59,15a14.52,14.52,0,0,1-12,5.66C249.38,53.55,245.34,51.12,242.64,46.13Zm-.14-13.76v4.72A14.23,14.23,0,0,0,246,46.67a11.51,11.51,0,0,0,9.17,4,10.76,10.76,0,0,0,9.17-4.85c2.3-3.24,3.51-7.56,3.51-12.82,0-4.58-1.08-8.36-3.24-11.06a10.61,10.61,0,0,0-8.63-4c-4.31,0-7.69,1.48-10,4.31a15.67,15.67,0,0,0-3.5,10.12ZM292,52.2a11.64,11.64,0,0,1-4.85,1.21c-5.53,0-8.23-3.24-8.23-9.85V18.75h-6.61v-3.1h6.61V6.07c.54-.14,1.08-.41,1.62-.54s1.08-.4,1.62-.54V15.78h9.71v3.1h-9.71V43.29c0,2.57.4,4.46,1.21,5.53a4.8,4.8,0,0,0,4.05,1.76,8.87,8.87,0,0,0,4.45-1.35v3Z"/>
    </g>
  </g>
</svg>
