<svg xmlns="http://www.w3.org/2000/svg" viewBox="0 0 243.54 70">
  <defs>
    <style>.cls-1{fill:#fff;}.cls-2{fill:#8ed6fb;}.cls-3{fill:#1c78c0;}.cls-4{fill:#1a1c1c;}</style>
  </defs>
  <title>Webpack_text</title>
  <g id="Layer_2" data-name="Layer 2">
    <g id="Layer_1-2" data-name="Layer 1">
      <path class="cls-1" d="M30.94,0,61.87,17.5v35L30.94,70,0,52.5v-35Z"/>
      <path class="cls-2" d="M56.35,51.29,32,65.09V54.35L47.15,46l9.2,5.3ZM58,49.78V20.94L49.1,26.09V44.64L58,49.78ZM5.43,51.29l24.39,13.8V54.35L14.61,46l-9.18,5.3ZM3.76,49.78V20.94l8.92,5.15V44.64Zm1-30.72,25-14.14V15.3l-16,8.82-.13.07L4.8,19.06Zm52.17,0L32,4.92V15.3l16,8.81.12.07L57,19.06Z"/>
      <path class="cls-3" d="M29.82,51.9l-15-8.25V27.32l15,8.66Zm2.14,0,15-8.24V27.32L32,36ZM15.84,25.44l15.05-8.28,15,8.28-15,8.68Z"/>
      <path class="cls-4" d="M93.07,46.07h6.59l6.73-22.4H100L96,39.56,91.73,23.67H86.17L81.89,39.56,78,23.67H71.52l6.68,22.4h6.6L89,31.72l4.12,14.35Zm13.66-11.14c0,6.72,4.58,11.7,11.78,11.7a10.64,10.64,0,0,0,9.43-4.93l-3.9-3a6.55,6.55,0,0,1-5.45,2.74c-3.3,0-5.7-2.15-5.82-5.14h15.77c0-.43,0-.86,0-1.29,0-7.32-3.94-12-10.88-12-6.39,0-11,5.05-11,11.82Zm6.21-2.44A4.76,4.76,0,0,1,117.79,28a4.56,4.56,0,0,1,4.79,4.54Zm17.87,13.58h5.57V43.76A8.75,8.75,0,0,0,143,46.63c6.43,0,11-4.84,11-11.74s-4.2-11.77-10.62-11.77A8.42,8.42,0,0,0,136.72,26V15.1h-5.9v31Zm5.74-11.14c0-4.19,2.48-6.59,5.74-6.59,3.43,0,5.74,2.7,5.74,6.59s-2.4,6.47-5.74,6.47C138.69,41.4,136.55,38.48,136.55,34.93Zm19.74,19.15h5.91V43.75a8.53,8.53,0,0,0,6.64,2.87c6.43,0,10.62-4.84,10.62-11.78s-4.54-11.73-11-11.73A8.57,8.57,0,0,0,161.85,26V23.66h-5.57V54.08ZM162,34.8c0-3.55,2.14-6.46,5.74-6.46,3.34,0,5.74,2.48,5.74,6.46s-2.31,6.6-5.74,6.6C164.52,41.4,162,39,162,34.8Zm18.51,4.33c0,4.71,3.85,7.5,8.39,7.5a7,7,0,0,0,5.44-2l.39,1.46H200V31.89c0-5-2.14-8.78-9.33-8.78a16.81,16.81,0,0,0-8.83,2.65l2.23,4a13.29,13.29,0,0,1,6-1.58c2.61,0,4.07,1.33,4.07,3.3V33a9.11,9.11,0,0,0-4.85-1.24c-5.23,0-8.69,3-8.69,7.4Zm5.9-.18c0-1.84,1.59-3.12,3.86-3.12S194.2,37,194.2,39,192.57,42,190.34,42,186.44,40.8,186.44,39Zm27.89,2.45A6.2,6.2,0,0,1,208,34.89c0-3.6,2.36-6.55,6.17-6.55a7.62,7.62,0,0,1,5.23,2.14l1.67-5a11.38,11.38,0,0,0-7.06-2.4,11.55,11.55,0,0,0-11.91,11.82c0,6.81,5,11.7,11.95,11.7a11.29,11.29,0,0,0,7-2.4l-1.59-4.84a8.18,8.18,0,0,1-5.06,2Zm8.87,4.67h5.9V34.5l7.5,11.57h6.94l-8.48-12.26,7.88-10.15H236.3l-7.2,9.43v-18h-5.9v31Z"/>
    </g>
  </g>
</svg>
